<svg width="113" height="117" viewBox="0 0 113 117" fill="none" xmlns="http://www.w3.org/2000/svg">
<path d="M29.6052 22.5378C29.5307 22.9209 29.5307 23.3571 29.6584 23.6444C29.7542 23.8572 29.9138 24.0274 30.084 24.187C30.5522 24.6339 31.0735 25.0276 31.6375 25.3468C32.1269 25.6234 32.6589 25.8575 33.1058 26.198C33.5633 26.5491 33.957 27.0173 34.5103 27.2088C34.7018 27.2833 34.9465 27.3045 35.0955 27.1769C35.3083 26.996 35.2551 26.6661 35.1912 26.4001C34.9146 25.1872 34.8827 24.0487 35.3189 22.8996C35.4147 22.6336 35.5317 22.3782 35.67 22.1335C35.7764 21.942 35.9041 21.7505 36.0105 21.5483C36.1701 21.2717 36.3084 20.9737 36.3297 20.6652C36.3616 20.2396 36.1701 19.8353 35.9573 19.4629C35.7658 19.1437 35.6168 18.7925 35.404 18.484C34.9678 17.8456 34.3081 17.3455 33.6059 16.9731C33.2654 16.7922 32.5206 16.5475 32.1588 16.7816C31.7864 17.0157 31.6481 17.7498 31.5311 18.1222C31.0948 19.4735 30.5203 20.7822 29.7967 22.0165C29.7116 22.1548 29.6478 22.3463 29.6052 22.5378Z" fill="#FDB082"/>
<path d="M34.4148 22.091C34.6489 22.3995 35.0106 22.6442 35.3192 22.889C35.4149 22.623 35.532 22.3676 35.6703 22.1229C35.7767 21.9314 35.9044 21.7398 36.0108 21.5377C36.0214 21.4632 36.0427 21.3994 36.0533 21.3249C36.1278 20.9844 36.1917 20.6333 36.2023 20.2822C36.1491 20.2609 36.0853 20.229 36.0321 20.2077C35.4469 19.9417 34.6701 19.4735 34.053 19.9417C33.3827 20.463 33.9998 21.5802 34.4041 22.091H34.4148Z" fill="#ED7D6B"/>
<path d="M38.3412 13.7491C38.3412 13.7491 38.3519 13.781 38.3625 13.8023C38.4157 13.9406 38.3944 14.1321 38.4264 14.2811C38.4583 14.462 38.4902 14.6535 38.4902 14.845C38.4902 15.1961 38.2455 15.5047 38.2455 15.8452C38.2455 16.0048 38.3306 16.1325 38.3944 16.2814C38.4689 16.4517 38.5434 16.6113 38.6285 16.7709C38.7988 17.1007 39.0009 17.4199 39.2244 17.7178C39.384 17.9306 39.5542 18.1541 39.5329 18.4094C39.501 18.8244 39.0541 18.9308 38.7349 19.0478C38.3838 19.1755 38.2987 19.633 38.2455 19.9522C38.1816 20.3778 38.1923 20.8141 38.1072 21.2397C38.0008 21.7717 37.7667 22.2185 37.1708 22.2717C36.3409 22.3356 35.4897 22.1441 34.7449 21.7717C34.1597 21.4737 33.6384 21.0801 33.1915 20.6119C32.7978 20.2076 32.2126 19.8884 31.9785 19.3777C31.7232 18.835 31.2124 18.9095 30.7336 18.6329C30.5421 18.5158 30.4144 18.3562 30.2442 18.2179C30.0952 18.1009 30.0208 17.9732 29.9463 17.7817C29.7867 17.3348 29.6058 16.8241 29.5526 16.3559C29.4994 15.8558 29.4781 15.3557 29.5207 14.845C29.5632 14.3237 29.7973 13.8023 30.0527 13.3554C30.3187 12.9085 30.9464 12.6425 31.3508 12.3021C31.6912 12.0148 31.9892 11.6849 32.3722 11.4509C33.0851 11.0253 33.7341 10.6422 34.5747 10.7167C35.1386 10.7593 35.6493 10.9082 36.192 11.0572C36.692 11.1955 37.0857 11.5679 37.4049 11.9616C37.8305 12.4936 38.0965 13.132 38.3412 13.7597V13.7491Z" fill="#FDB082"/>
<path d="M31.1583 10.9721C30.871 11.1423 30.6156 11.3445 30.3709 11.5998C30.073 11.8977 29.7644 12.1212 29.5197 12.4829C28.9983 13.2171 28.7217 14.0683 28.8919 14.9727C29.009 15.5473 29.2324 16.1005 29.4346 16.6432C29.7963 17.6008 30.1049 18.569 30.3603 19.5585C30.3922 19.6756 30.4241 19.8033 30.5199 19.8777C30.7539 20.0693 31.1689 19.6756 31.3498 19.5692C31.7754 19.3351 32.1371 19.0053 32.4244 18.6222C32.5947 18.3881 32.8075 18.1541 32.9564 17.9093C33.1479 17.5901 33.1586 17.239 33.4884 17.0049C33.648 16.8879 33.8502 16.8134 34.0204 16.7177C34.4035 16.4836 34.3715 16.1325 34.4354 15.7281C34.6056 14.6216 34.7759 13.3873 36.0314 12.9937C36.2548 12.9298 36.6698 12.9724 36.8081 12.7915C36.9996 12.5681 36.9783 11.9509 36.9039 11.6956C36.7975 11.3445 36.5208 11.0785 36.2335 10.855C35.9888 10.6635 35.7228 10.4933 35.4355 10.3762C34.6588 10.0783 33.8927 10.1421 33.116 10.323C32.5627 10.4507 32.0095 10.5784 31.4881 10.8125C31.3817 10.8657 31.2647 10.9189 31.1689 10.9721H31.1583Z" fill="#21201B"/>
<path d="M34.9884 17.5902C34.9884 17.5902 34.9884 17.5689 34.9884 17.5583C35.0735 16.7496 34.3181 15.3239 33.3286 15.8133C32.9881 15.9836 32.7646 16.3666 32.7327 16.7496C32.6689 17.4944 33.3392 18.6861 34.1904 18.6542C34.7118 18.6329 34.9246 18.0264 34.9778 17.5796L34.9884 17.5902Z" fill="#FDB082"/>
<path d="M37.0743 9.12076C37.2233 10.089 37.3616 11.0572 37.468 12.0361C37.5212 12.4936 37.5744 12.9512 37.617 13.4087L29.2327 16.0048C29.0092 15.6005 28.7964 15.1962 28.5836 14.7919C28.1261 13.9194 27.6899 13.0469 27.2643 12.1638C27.2643 12.1532 27.2643 12.1319 27.2749 12.1212C27.2323 12.1 27.243 12.0468 27.3175 12.0255L36.9467 9.03564C37.0211 9.01436 37.0637 9.04628 37.0318 9.08884C37.0531 9.08884 37.0637 9.08884 37.0743 9.12076Z" fill="#965F6F"/>
<path d="M37.4684 12.0361C37.5216 12.4936 37.5748 12.9511 37.6173 13.4086L29.233 16.0048C29.0096 15.6005 28.7968 15.1962 28.584 14.7918L37.4684 12.0467V12.0361Z" fill="#FDC87A"/>
<path d="M41.2034 12.3021L34.9258 14.2386L37.4368 11.5466L41.1927 12.0467C41.3204 12.068 41.3311 12.2489 41.1927 12.2914L41.2034 12.3021Z" fill="#FDC87A"/>
<path d="M34.264 105.572C34.264 105.743 34.2321 105.913 34.2108 106.083C34.1683 106.455 34.1789 106.913 34.6152 107.051C34.7109 107.083 34.8173 107.083 34.9237 107.083C35.7536 107.083 36.5623 106.817 37.3496 106.573C37.6795 106.466 38.0732 106.381 38.3604 106.189C38.403 106.158 38.4562 106.115 38.4775 106.072C38.52 105.977 38.4881 105.86 38.4243 105.785C38.3604 105.7 38.2647 105.647 38.1796 105.594C37.4348 105.072 37.2113 104.285 37.1475 103.423C37.1049 102.817 37.0624 102.221 37.0198 101.614C36.8283 99.1032 36.5729 96.5922 36.275 94.0918C36.2005 93.4428 36.1048 92.7512 35.743 92.2192C35.4132 91.7297 34.8812 91.4318 34.3385 91.2722C33.4128 91.0062 31.7956 91.1871 31.7636 92.5064C31.7424 93.3364 31.902 94.1556 32.0616 94.9643C32.2318 96.1134 32.5084 97.2625 32.7425 98.401C32.9979 99.6352 33.2532 100.859 33.5405 102.082C33.6788 102.689 33.8278 103.306 33.9768 103.913C34.0725 104.274 34.1683 104.636 34.2321 105.008C34.264 105.2 34.264 105.381 34.2534 105.572H34.264Z" fill="#FDB082"/>
<path d="M42.9559 106.573C42.7644 106.722 42.4345 106.817 42.2005 106.892C41.6578 107.073 41.0939 107.168 40.53 107.254L38.4126 107.562C38.2105 107.594 37.9445 107.69 37.7423 107.658C37.5189 107.626 37.2848 107.583 37.0507 107.541C36.9762 107.53 36.9017 107.52 36.8273 107.509C36.6464 107.488 36.2314 107.434 36.1357 107.637C36.1037 107.7 36.1037 107.764 36.0931 107.828C36.0931 107.86 36.0931 107.881 36.0931 107.903L34.2417 108.179C34.2417 108.179 34.2205 108.126 34.2205 108.094C34.1885 107.945 34.1566 107.828 34.2205 107.668C34.2205 107.647 34.2417 107.626 34.2417 107.605C34.2417 107.583 34.2417 107.562 34.2417 107.541C34.2417 107.53 34.2417 107.52 34.2311 107.498C34.1992 107.402 34.1779 107.296 34.1673 107.19C34.1247 106.87 34.0928 106.541 34.1353 106.221C34.1566 106.062 34.1566 105.881 34.2311 105.743C34.3588 105.498 34.4971 105.604 34.7099 105.668C35.1568 105.817 35.6356 105.849 36.1037 105.753C36.5613 105.668 36.9975 105.466 37.3593 105.168C37.4763 105.072 37.5721 104.806 37.721 104.796C37.9125 104.774 38.1253 105.019 38.2743 105.104C38.5935 105.285 38.9233 105.455 39.2638 105.594C39.9554 105.87 40.6896 106.051 41.4344 106.115C41.6578 106.136 41.8919 106.147 42.1153 106.158C42.3175 106.158 42.6048 106.147 42.7963 106.211C42.8708 106.243 42.9346 106.275 42.9772 106.328C43.041 106.402 43.0517 106.487 42.9453 106.573H42.9559Z" fill="#965F6F"/>
<path d="M42.9891 106.328C42.8721 106.349 42.7444 106.402 42.6273 106.445C42.3188 106.551 41.9996 106.636 41.6804 106.711C41.042 106.86 40.4036 106.966 39.7652 107.073C39.7226 107.073 39.6801 107.083 39.6375 107.094C39.1906 107.168 38.7437 107.232 38.2969 107.275C37.8393 107.317 37.4137 107.285 36.9562 107.275C36.7966 107.275 36.6264 107.275 36.4668 107.275C36.5306 107.105 36.6583 106.956 36.8285 106.87C37.052 106.753 37.3286 106.732 37.5733 106.7C37.8393 106.658 38.1053 106.626 38.3713 106.636C38.499 106.636 38.6267 106.636 38.765 106.636C38.8608 106.636 38.9991 106.615 39.0736 106.551C39.1161 106.509 39.1374 106.445 39.1587 106.392C39.1906 106.328 39.2119 106.264 39.2438 106.2C39.297 106.072 39.3396 105.934 39.3821 105.796C39.3821 105.764 39.3077 105.764 39.297 105.796C39.2651 105.913 39.2225 106.041 39.18 106.158C39.1374 106.264 39.0949 106.381 39.0417 106.487C38.9991 106.562 38.9353 106.573 38.8608 106.583C38.7863 106.594 38.7118 106.594 38.6373 106.594C38.5097 106.594 38.382 106.594 38.2543 106.594C37.9883 106.594 37.7329 106.636 37.4776 106.679C37.2435 106.711 36.9881 106.743 36.7753 106.86C36.6051 106.956 36.4668 107.115 36.3923 107.296C35.6794 107.317 34.9665 107.424 34.2749 107.573C34.2749 107.594 34.2856 107.615 34.2749 107.637C34.2749 107.658 34.2643 107.679 34.2537 107.7C34.1898 107.849 34.2217 107.977 34.2537 108.126C34.2537 108.158 34.2643 108.19 34.2749 108.211L36.1263 107.934C36.1263 107.934 36.1263 107.881 36.1263 107.86C36.1263 107.796 36.1263 107.722 36.1689 107.668C36.2646 107.477 36.6796 107.52 36.8605 107.541C36.9349 107.541 37.0094 107.562 37.0839 107.573C37.318 107.615 37.5521 107.668 37.7755 107.69C37.9777 107.711 38.2437 107.615 38.4458 107.594L40.5632 107.285C41.1271 107.2 41.691 107.105 42.2337 106.924C42.4677 106.849 42.7976 106.753 42.9891 106.604C43.0955 106.519 43.0849 106.434 43.021 106.36L42.9891 106.328Z" fill="#21201B"/>
<path d="M39.1367 105.466C39.1367 105.466 39.1048 105.445 39.0941 105.445C39.0728 105.445 39.0516 105.445 39.0303 105.445C39.009 105.445 38.9877 105.455 38.9771 105.477C38.9239 105.562 38.8707 105.636 38.8281 105.732C38.8281 105.743 38.8281 105.764 38.8388 105.764C38.8494 105.764 38.8813 105.775 38.892 105.775C38.9345 105.775 38.9771 105.764 38.9984 105.721C39.0196 105.679 39.0409 105.636 39.0622 105.604C39.0835 105.572 39.1048 105.53 39.126 105.498C39.126 105.487 39.1367 105.477 39.126 105.455L39.1367 105.466Z" fill="#21201B"/>
<path d="M6.16403 101.093C6.04699 101.221 5.92995 101.348 5.81291 101.465C5.54691 101.731 5.29155 102.104 5.54691 102.487C5.61075 102.572 5.68523 102.636 5.77035 102.7C6.44067 103.2 7.22803 103.487 8.01539 103.764C8.34523 103.881 8.70699 104.051 9.05811 104.072C9.11131 104.072 9.17515 104.072 9.22835 104.051C9.32411 104.008 9.36667 103.891 9.36667 103.785C9.36667 103.678 9.32411 103.583 9.29219 103.487C9.01555 102.625 9.31347 101.859 9.78163 101.135C10.1115 100.635 10.4413 100.125 10.7712 99.6139C12.1331 97.4966 13.4631 95.358 14.7399 93.1768C15.0697 92.6128 15.4102 92.0064 15.4528 91.3573C15.4847 90.7615 15.2506 90.2082 14.9101 89.7507C14.3356 88.974 12.9311 88.144 12.1118 89.1761C11.6011 89.8252 11.2287 90.57 10.8563 91.3148C10.2924 92.3362 9.82419 93.4215 9.31347 94.4642C8.77083 95.592 8.22819 96.7305 7.71747 97.8796C7.46211 98.4542 7.20675 99.0288 6.95139 99.6033C6.80243 99.9438 6.66411 100.295 6.49387 100.625C6.40875 100.795 6.29171 100.944 6.17467 101.082L6.16403 101.093Z" fill="#FDB082"/>
<path d="M12.4739 107.158C12.2292 107.158 11.91 107.03 11.6865 106.956C11.1439 106.775 10.6438 106.509 10.1437 106.232L8.27108 105.2C8.10084 105.104 7.8242 105.008 7.67524 104.87C7.51564 104.711 7.35604 104.53 7.19644 104.359C7.14324 104.306 7.09004 104.253 7.03684 104.2C6.90916 104.072 6.6006 103.785 6.40908 103.881C6.34524 103.913 6.30268 103.966 6.26012 104.008C6.23884 104.03 6.2282 104.051 6.20692 104.072L4.56836 103.168C4.56836 103.168 4.58964 103.115 4.60028 103.083C4.66412 102.944 4.70668 102.827 4.85564 102.753C4.87692 102.742 4.8982 102.732 4.91948 102.71C4.94076 102.689 4.9514 102.668 4.9514 102.646C4.9514 102.636 4.9514 102.625 4.96204 102.604C4.99396 102.508 5.04716 102.412 5.10036 102.317C5.25996 102.029 5.44084 101.753 5.66428 101.519C5.77068 101.401 5.88772 101.263 6.03668 101.199C6.2814 101.082 6.3346 101.242 6.46228 101.433C6.72828 101.816 7.09004 102.136 7.51564 102.348C7.9306 102.561 8.4094 102.657 8.86692 102.646C9.01588 102.646 9.24996 102.487 9.38828 102.561C9.55852 102.657 9.56916 102.987 9.633 103.146C9.77132 103.487 9.94156 103.817 10.1224 104.125C10.5055 104.764 10.9843 105.349 11.5376 105.86C11.7078 106.009 11.878 106.158 12.0589 106.307C12.2185 106.445 12.4526 106.594 12.5696 106.764C12.6122 106.828 12.6441 106.902 12.6441 106.966C12.6441 107.062 12.6122 107.136 12.4632 107.147L12.4739 107.158Z" fill="#965F6F"/>
<path d="M12.655 106.977C12.5486 106.924 12.4209 106.892 12.2932 106.849C11.9846 106.743 11.6761 106.615 11.3782 106.487C10.7823 106.221 10.2078 105.923 9.6332 105.615C9.59064 105.594 9.55872 105.572 9.51616 105.551C9.12248 105.338 8.71816 105.125 8.34576 104.881C7.96272 104.636 7.63288 104.349 7.28176 104.061C7.15408 103.955 7.0264 103.859 6.88808 103.764C7.04768 103.668 7.2392 103.625 7.42008 103.657C7.67544 103.7 7.89888 103.849 8.12232 103.966C8.3564 104.093 8.59048 104.232 8.80328 104.391C8.90968 104.476 9.00544 104.562 9.11184 104.625C9.19696 104.679 9.30336 104.753 9.40976 104.742C9.4736 104.742 9.5268 104.7 9.58 104.668C9.64384 104.636 9.70768 104.593 9.76088 104.562C9.87792 104.487 9.99496 104.413 10.112 104.327C10.1439 104.306 10.0694 104.253 10.0482 104.274C9.94176 104.349 9.846 104.423 9.72896 104.487C9.6332 104.551 9.5268 104.615 9.4204 104.668C9.34592 104.7 9.28208 104.668 9.21824 104.636C9.1544 104.604 9.09056 104.562 9.03736 104.508C8.93096 104.434 8.8352 104.349 8.7288 104.274C8.516 104.125 8.28192 103.998 8.05848 103.87C7.84568 103.753 7.63288 103.625 7.38816 103.593C7.186 103.561 6.99448 103.604 6.82424 103.71C6.24968 103.295 5.61128 102.944 4.97288 102.657C4.97288 102.678 4.9516 102.7 4.94096 102.721C4.91968 102.742 4.8984 102.742 4.87712 102.763C4.72816 102.838 4.6856 102.966 4.62176 103.093C4.61112 103.125 4.60048 103.146 4.58984 103.178L6.2284 104.083C6.2284 104.083 6.26032 104.04 6.2816 104.019C6.32416 103.966 6.36672 103.923 6.43056 103.891C6.62208 103.795 6.93064 104.093 7.05832 104.21C7.11152 104.264 7.16472 104.317 7.21792 104.37C7.37752 104.54 7.52648 104.721 7.69672 104.881C7.83504 105.019 8.11168 105.115 8.29256 105.211L10.1652 106.243C10.6653 106.519 11.1654 106.785 11.708 106.966C11.9314 107.041 12.2613 107.168 12.4954 107.168C12.6337 107.168 12.6762 107.083 12.6762 106.987L12.655 106.977Z" fill="#21201B"/>
<path d="M10.1126 103.966C10.1126 103.966 10.102 103.934 10.0913 103.923C10.07 103.902 10.0594 103.891 10.0381 103.881C10.0168 103.881 9.99556 103.87 9.98492 103.881C9.88916 103.913 9.80404 103.944 9.71892 103.998C9.70828 103.998 9.70828 104.019 9.71892 104.03C9.71892 104.051 9.7402 104.061 9.75084 104.072C9.78276 104.093 9.82532 104.115 9.86788 104.093C9.91044 104.072 9.953 104.051 9.98492 104.04C10.0275 104.019 10.0594 104.008 10.102 103.998C10.1126 103.998 10.1232 103.987 10.1232 103.966H10.1126Z" fill="#21201B"/>
<path d="M25.9969 70.6625C25.7203 69.4282 25.1457 68.311 24.9223 67.0874C24.6563 65.6617 24.518 64.2253 24.4861 62.7782C24.4435 61.0333 24.2201 59.2457 24.4435 57.5114C24.4967 57.0752 24.6031 56.607 24.9436 56.3197C25.2202 56.0857 25.6033 56.0218 25.9757 55.9793C27.5504 55.7665 29.2315 55.5749 30.6573 56.2772C31.1254 56.5113 31.551 56.8305 31.8383 57.2667C32.4554 58.203 32.5937 59.5543 32.7853 60.6396C34.892 72.5989 36.3497 84.5689 37.7967 96.6134C37.8499 97.039 37.9031 97.4753 37.9457 97.9009C37.9457 97.9009 37.9457 97.9009 37.9457 97.9115C38.1159 99.3798 38.3181 100.838 38.4564 102.306C38.5628 103.529 39.0522 104.668 37.6477 105.253C36.7433 105.636 35.8283 106.019 34.8707 106.253C34.626 106.317 32.232 106.998 32.2213 106.881C31.817 103.327 31.0084 99.9012 30.4551 96.39C29.8805 92.7511 29.3379 89.1122 28.7527 85.4733C27.9547 80.5151 27.0929 75.5675 26.0182 70.6731L25.9969 70.6625Z" fill="#21201B"/>
<path d="M21.166 53.8087C20.2829 54.1811 19.4956 54.7876 19.1657 55.6069C18.9423 56.1601 19.1125 56.7028 19.0806 57.2773C19.0274 58.2669 18.7827 59.2351 18.7401 60.2246C18.506 65.3212 17.6974 70.3965 16.3355 75.3121C16.0269 76.44 15.6758 77.5891 15.7184 78.7488C15.8248 81.4833 18.4741 83.8241 21.166 82.3452C22.645 81.5259 23.3579 79.8341 23.9644 78.2701C25.305 74.844 26.635 71.4073 27.9756 67.9812C28.5608 66.4703 29.0503 65.1722 29.2099 63.5762C29.3695 62.0015 29.2205 60.4481 29.0503 58.8733C28.8907 57.4369 28.4544 55.9793 27.4649 54.9259C26.3796 53.7661 24.7092 53.2341 23.1238 53.3299C22.5173 53.3618 21.8151 53.5214 21.166 53.7981V53.8087Z" fill="#21201B"/>
<path d="M4.83512 101.146C4.76064 101.327 8.38888 102.721 8.6868 102.838C9.20816 103.04 10.2615 103.668 10.751 103.38C11.3681 103.019 11.6873 101.987 12.0171 101.391C12.6449 100.231 13.2301 99.0607 13.8259 97.8903C16.2731 93.1235 19.2098 88.6547 21.5825 83.8561C22.4018 82.1962 23.4232 80.4406 23.8062 78.6212C24.1574 76.9614 23.1891 76.3336 21.7421 75.9293C21.0505 75.7378 20.3482 75.6101 19.6354 75.642C18.6884 75.6952 17.784 76.0357 16.9434 76.4506C15.6134 77.1103 15.3049 78.3765 14.6984 79.6639C14.0068 81.1429 13.3046 82.6112 12.613 84.0902C11.283 86.9204 9.81464 89.7719 8.6336 92.6234C7.45256 95.4856 6.11192 98.3158 4.84576 101.146H4.83512Z" fill="#21201B"/>
<path d="M30.1142 63.0761C28.997 65.268 28.0288 67.5343 27.2201 69.8645C26.9967 70.5135 26.7839 71.1732 26.5817 71.8222C26.5604 71.8967 26.752 71.9073 26.7732 71.8435C27.4968 69.4921 28.3692 67.1832 29.4013 64.9488C29.6886 64.321 29.9865 63.7039 30.3057 63.0974C30.3376 63.0336 30.1461 63.0123 30.1142 63.0761Z" fill="#3F3E36"/>
<path d="M35.5207 28.2303C35.4249 28.2515 35.3079 28.2409 35.1802 28.1983C34.5631 27.9643 34.1587 27.3791 33.7012 26.9428C33.1586 26.4321 32.5095 26.0491 31.9031 25.6128C30.7965 24.8148 29.8176 23.8147 29.0515 22.6762C28.7111 22.1655 28.5621 21.6867 28.8494 21.1334C29.0196 20.8142 29.2643 20.2396 29.7006 20.2396C29.9027 20.2396 30.0836 20.3247 30.2645 20.4205C31.7222 21.1547 32.9458 22.0803 34.0523 23.2507C34.8184 24.07 35.6909 24.9638 36.0101 26.081C36.1059 26.4108 36.1059 26.7513 36.0952 27.0918C36.0739 27.528 35.9356 28.1558 35.5313 28.2409L35.5207 28.2303Z" fill="white"/>
<path d="M36.1264 44.1477C35.7433 46.9247 35.2539 49.6911 34.69 52.4682C34.69 54.0429 33.9771 55.8304 33.7217 57.3945C33.6472 57.8627 33.6366 58.8735 33.5196 59.6927C33.4557 60.1715 33.3493 60.5759 33.1684 60.7887C32.53 61.5228 30.5829 61.1185 29.7636 61.0015C26.8376 60.5865 23.9329 60.0119 21.0708 59.2778C20.5494 59.1395 20.0174 59.0437 19.496 58.8735C18.7938 58.6394 18.464 58.5543 18.5704 57.7775C18.6236 57.4051 18.6768 57.0327 18.7406 56.6603C19.2939 53.213 20.1557 49.8295 20.7409 46.3821C21.4112 42.4559 21.8688 38.4872 22.3156 34.5291C22.6774 31.3584 23.3584 28.1026 25.2629 25.5383C25.8907 24.6871 26.6036 23.8998 27.2739 23.0805C27.6144 22.6549 27.9548 22.2293 28.2634 21.7718C28.4868 21.4419 28.7316 20.7184 29.2104 20.7184C29.4125 20.7184 29.5934 20.8035 29.7743 20.8993C31.232 21.6335 32.4556 22.5591 33.5621 23.7295C34.5623 24.7935 35.6582 25.7299 36.137 27.1556C36.5307 28.3154 36.6584 29.5496 36.7328 30.7732C36.7648 31.2627 36.9031 31.6989 36.9456 32.1777C36.9988 32.7948 36.9456 33.4439 36.9456 34.061C36.9031 36.7635 36.7009 39.4661 36.3924 42.1474C36.3179 42.8177 36.2328 43.488 36.137 44.1583L36.1264 44.1477Z" fill="#965F6F"/>
<path d="M33.7113 27.8259C33.9135 28.3366 34.0199 28.9218 34.105 29.4113C34.3816 31.1988 34.5199 33.0076 34.6583 34.8164C34.9349 38.434 35.2009 42.0516 35.4776 45.6692C35.5414 46.5523 35.4775 47.5844 34.9349 48.3292C34.3071 49.1697 32.9878 49.1059 32.0621 49.0527C31.2641 49.0101 30.4129 48.9463 29.7852 48.4569C28.9552 47.8291 28.7424 46.7013 28.5828 45.6798C28.1891 43.1156 27.7848 40.5513 27.3911 37.9871C27.0613 35.8378 26.7208 33.6779 26.6889 31.4967C26.6783 30.6242 26.7208 29.7305 27.0613 28.9325C27.572 27.7514 28.9339 26.3363 30.2533 26.1235C31.1896 25.9745 32.3281 26.2086 33.0729 26.8364C33.3708 27.0917 33.573 27.4322 33.7326 27.8153L33.7113 27.8259Z" fill="#965F6F"/>
<path d="M51.9686 42.8069C51.9686 42.8069 51.8516 42.7325 51.7665 42.7112C51.9899 42.6473 52.1708 42.4239 52.1921 42.1898C52.2134 41.9557 52.0857 41.711 51.8729 41.594C52.0538 41.4025 52.1814 41.1365 52.1495 40.8705C52.1176 40.6045 51.8835 40.3597 51.6175 40.381C51.8942 40.2001 51.9367 39.7107 51.6707 39.4979C51.3622 39.2532 50.7557 39.3702 50.3939 39.4128C49.6066 39.4979 48.7873 39.7107 48.1702 40.2321C47.8616 40.4874 47.7978 40.8492 47.7339 41.2216C47.6914 41.4876 47.6382 41.7323 47.436 41.9025C47.2126 42.0941 46.9678 42.1898 46.6912 42.2749C46.755 42.2537 46.7444 42.1898 46.6486 42.1792C46.2337 42.1685 46.1486 42.6261 46.0847 42.9453C45.9996 43.3815 45.9677 43.839 45.957 44.2859C45.957 44.4987 45.957 44.7221 45.957 44.9349C45.957 45.1158 45.957 45.2861 45.9783 45.4669C46.6274 45.4989 47.2658 45.5308 47.9148 45.5627C48.1702 45.5733 48.4255 45.584 48.6702 45.5414C49.0001 45.4776 49.3086 45.2861 49.5321 45.0307C49.7981 44.7328 50.0002 44.4455 50.3301 44.2327C50.6918 43.9986 51.1068 43.9667 51.5005 43.839C51.692 43.7752 51.8835 43.6794 52.0006 43.5092C52.1495 43.307 52.1389 42.9559 51.9474 42.7963L51.9686 42.8069Z" fill="#FDB082"/>
<path d="M51.5005 40.3704C50.9579 40.3704 50.4365 40.5087 49.9045 40.6577C49.8726 40.6577 49.8407 40.6896 49.8726 40.7215C49.9045 40.7534 49.9684 40.7534 50.0109 40.7428C50.5004 40.6045 50.9898 40.4661 51.5005 40.4661C51.5324 40.4661 51.5963 40.4661 51.5963 40.4129C51.5963 40.3597 51.5218 40.3597 51.5005 40.3597V40.3704Z" fill="#ED7D6B"/>
<path d="M51.7762 41.5833C51.4995 41.5407 51.2229 41.5833 50.9463 41.6578C50.659 41.7322 50.3823 41.8067 50.1057 41.8918C50.0738 41.8918 50.0418 41.9238 50.0738 41.9557C50.1057 41.9876 50.1695 41.9876 50.2121 41.977C50.4674 41.9025 50.7122 41.828 50.9675 41.7642C51.2122 41.7003 51.4782 41.6365 51.7336 41.679C51.7655 41.679 51.84 41.679 51.8507 41.6471C51.8719 41.6046 51.8081 41.5939 51.7868 41.5833H51.7762Z" fill="#ED7D6B"/>
<path d="M51.7129 42.7856C51.7129 42.7856 51.6278 42.7431 51.5958 42.7537C51.1383 42.8176 50.6914 42.924 50.2658 43.0729C50.2339 43.0836 50.202 43.1048 50.2339 43.1368C50.2658 43.1687 50.3297 43.1687 50.3722 43.158C50.7872 43.0197 51.2234 42.9133 51.6597 42.8495C51.6916 42.8495 51.7448 42.8282 51.7235 42.7856H51.7129Z" fill="#ED7D6B"/>
<path d="M46.6931 47.8397C46.6931 47.9035 46.6931 47.9674 46.6506 48.0206C46.5974 48.095 46.491 48.1057 46.3952 48.1163C45.6291 48.1695 44.8631 48.2227 44.0863 48.2866C43.6182 48.3185 43.15 48.3504 42.6819 48.393C41.5008 48.4781 40.3304 48.5632 39.1494 48.6483C36.7128 48.8292 34.4252 49.2229 31.9674 48.893C31.3503 48.8079 30.382 48.6802 29.9139 48.244C29.3819 47.7546 29.3393 46.9353 29.3712 46.2118C29.3925 45.6798 29.4563 45.0094 29.8819 44.637C30.2756 44.2859 30.7438 44.0731 31.1375 43.6794C31.7865 43.0304 32.3398 42.6048 33.2867 42.4346C34.4784 42.2111 35.851 42.3707 37.0214 42.3282C38.9259 42.2643 40.8305 42.126 42.7351 41.9877C43.2351 41.9558 43.7459 41.9132 44.2459 41.8813C44.9269 41.8281 45.6185 41.7855 46.2995 41.743C46.4591 41.7323 46.6506 41.743 46.757 41.86C46.8208 41.9451 46.8315 42.0622 46.8315 42.1792C46.8527 44.0731 46.8102 45.9564 46.7038 47.8503L46.6931 47.8397Z" fill="#965F6F"/>
<path d="M44.2244 44.2221C44.2032 45.584 44.1606 46.9353 44.0861 48.2866C43.618 48.3185 43.1498 48.3504 42.6816 48.393C42.6816 47.978 42.6816 47.5737 42.6816 47.1587C42.6816 45.435 42.6923 43.7114 42.7348 41.9877C43.2349 41.9558 43.7456 41.9132 44.2457 41.8813C44.2457 42.6686 44.2457 43.4454 44.2457 44.2327L44.2244 44.2221Z" fill="white"/>
<path d="M34.9453 48.8505C34.3175 48.8399 33.7004 48.8186 33.0726 48.808C32.5619 48.7973 32.0512 48.7867 31.5405 48.7335C31.0723 48.6803 30.6148 48.5739 30.1892 48.3717C29.7529 48.1589 29.3806 47.8184 29.1358 47.3928C28.8805 46.9566 28.7528 46.4565 28.6464 45.9671C28.54 45.4138 28.4655 44.8499 28.3804 44.2966C28.1889 43.0623 27.9974 41.8281 27.8058 40.5939C27.593 39.2107 27.3802 37.8168 27.1568 36.4336C27.1461 36.3591 26.9546 36.3698 26.9653 36.4336C27.359 38.9872 27.7526 41.5408 28.157 44.0838C28.2527 44.6796 28.3272 45.2648 28.4336 45.8607C28.5187 46.3501 28.6358 46.8395 28.8698 47.2758C29.0826 47.7014 29.4018 48.0525 29.8061 48.3079C30.2105 48.5526 30.668 48.6909 31.1255 48.776C31.6682 48.8718 32.2321 48.8931 32.7854 48.9037C33.5089 48.925 34.2218 48.9356 34.9453 48.9569C35.0623 48.9569 35.0623 48.8611 34.9453 48.8611V48.8505Z" fill="#51333B"/>
<path d="M36.2229 42.4026C35.2759 42.3707 34.3183 42.3601 33.3926 42.5622C32.4776 42.7644 31.669 43.2113 31.0518 43.9242C30.7114 44.3178 30.4347 44.7647 30.1794 45.2222C30.1474 45.2861 30.339 45.3074 30.3709 45.2435C30.7965 44.4562 31.3285 43.6901 32.0946 43.2006C32.8606 42.7112 33.7863 42.541 34.6907 42.4984C35.2014 42.4771 35.7228 42.4878 36.2335 42.4984C36.3506 42.4984 36.3506 42.4026 36.2335 42.4026H36.2229Z" fill="#51333B"/>
<path d="M34.8604 37.2103C34.6902 35.5079 34.5199 33.8055 34.3497 32.0925C34.2646 31.1987 34.2114 30.2837 34.073 29.3899C33.9666 28.6558 33.8922 27.8471 33.4559 27.23C33.0942 26.7193 32.5728 26.3363 31.9557 26.2086C31.8599 26.1873 31.7748 26.2724 31.9025 26.3043C32.4983 26.432 32.9984 26.8363 33.3282 27.3471C33.807 28.0812 33.8496 29.0814 33.9347 29.9326C34.0411 30.9647 34.1369 31.9861 34.2433 33.0182C34.2858 33.4544 34.3284 33.88 34.371 34.3163C34.5412 36.0187 34.7114 37.7211 34.8817 39.4341C34.9774 40.3917 35.0732 41.3493 35.169 42.3069C35.169 42.3814 35.3711 42.3707 35.3605 42.3069C35.1902 40.6151 35.02 38.9127 34.8498 37.221L34.8604 37.2103Z" fill="#51333B"/>
<path d="M32.1038 42.1473C31.742 42.1473 31.3803 42.2324 31.0398 42.3707C30.9972 42.3814 31.0079 42.4239 31.0398 42.4452C31.0823 42.4665 31.1355 42.4665 31.1781 42.4452C31.476 42.3282 31.7846 42.2643 32.1038 42.2537C32.1357 42.2537 32.1995 42.2537 32.1995 42.2005C32.1995 42.1579 32.1251 42.1473 32.1038 42.1473Z" fill="#51333B"/>
<path d="M36.5725 28.3792C36.1043 27.8472 35.6362 27.3046 35.1467 26.7832C34.6892 26.2938 34.1679 25.8788 33.6252 25.5064C32.5293 24.7616 31.3695 24.1339 30.2417 23.4423C29.5927 23.0486 28.9543 22.6336 28.3478 22.1655C28.2946 22.1229 28.1137 22.1655 28.1775 22.2187C29.2309 23.0273 30.3694 23.687 31.5079 24.3573C32.0824 24.6978 32.6463 25.0383 33.2103 25.4C33.7635 25.7618 34.3168 26.1661 34.785 26.6343C35.3489 27.1982 35.8703 27.826 36.4023 28.4324C36.4448 28.475 36.6257 28.4537 36.5725 28.3792Z" fill="#51333B"/>
<path d="M33.5313 59.7034C33.4674 60.1822 33.361 60.5865 33.1802 60.7993C32.5418 61.5334 30.5946 61.1291 29.7754 61.0121C26.8494 60.5971 23.9446 60.0226 21.0825 59.2884C20.5611 59.1501 20.0291 59.0543 19.5078 58.8841C18.8055 58.65 18.4757 58.5649 18.5821 57.7882C18.6353 57.4158 18.6885 57.0434 18.7523 56.671C19.0715 56.7774 19.3588 56.8944 19.5716 56.9795C19.8589 57.0966 20.1462 57.2349 20.4441 57.3626C21.6358 57.8733 22.9232 58.1818 24.2106 58.4478C26.4876 58.916 28.7965 59.2565 31.1266 59.4693C31.8714 59.5331 32.7333 59.6821 33.5419 59.714L33.5313 59.7034Z" fill="white"/>
<path d="M56.8221 41.8709C56.8221 41.8709 56.7051 41.7964 56.62 41.7751C56.8434 41.7113 57.0243 41.4879 57.0456 41.2538C57.0669 41.0197 56.9392 40.775 56.7264 40.6579C56.9073 40.4664 57.0349 40.2004 57.003 39.9344C56.9711 39.6684 56.737 39.4237 56.471 39.445C56.7583 39.4237 56.5774 38.8385 56.5029 38.7215C56.2263 38.2852 55.673 38.4235 55.2474 38.4767C54.8218 38.5193 54.3217 38.5512 53.9706 38.8172C53.6514 39.0513 53.428 39.3811 53.2258 39.7216C52.7789 40.4771 52.4172 41.0729 51.5447 41.3495C51.6085 41.3283 51.5979 41.2644 51.5021 41.2538C51.0872 41.2431 51.0021 41.7007 50.9382 42.0199C50.8531 42.4561 50.8212 42.9136 50.8105 43.3605C50.8105 43.5733 50.8105 43.7967 50.8105 44.0095C50.8105 44.1904 50.8105 44.3607 50.8318 44.5415C51.4809 44.5735 52.1193 44.6054 52.7683 44.6373C53.0237 44.6479 53.279 44.6586 53.5237 44.616C53.8536 44.5522 54.1621 44.3607 54.3856 44.1053C54.6516 43.8074 54.8537 43.5201 55.1836 43.3073C55.5453 43.0732 55.9603 43.0413 56.354 42.9136C56.5455 42.8498 56.737 42.754 56.8541 42.5838C57.003 42.3816 56.9924 42.0305 56.8009 41.8709H56.8221Z" fill="#FDB082"/>
<path d="M36.6705 27.8473C36.8833 28.3687 36.9791 28.9645 37.1068 29.4965C37.3834 30.635 37.6494 31.7735 37.8941 32.912C38.3942 35.157 38.8411 37.4127 39.2348 39.679C39.4582 40.9239 39.6604 42.2007 39.405 43.4349C39.2135 44.3713 38.7241 45.2863 38.1282 46.0204C37.3196 47.01 36.2981 47.0738 35.0852 47.01C34.3297 46.9674 33.5211 46.9142 32.9146 46.478C32.1273 45.914 31.9251 44.8926 31.7761 43.9669C31.3931 41.6474 31.0207 39.3385 30.6377 37.019C30.3185 35.0719 29.9993 33.1248 29.978 31.1564C29.9673 30.369 30.0099 29.5604 30.3397 28.8475C30.8292 27.7835 32.1166 26.5067 33.3615 26.3152C34.2553 26.1768 35.3405 26.3897 36.0321 26.9642C36.3301 27.1983 36.5216 27.5069 36.6599 27.8473H36.6705Z" fill="#51333B"/>
<path d="M52.2581 46.2652C52.2581 46.3291 52.2581 46.3929 52.2156 46.4461C52.1624 46.5206 52.056 46.5312 51.9709 46.5419C51.4069 46.5844 50.843 46.627 50.2791 46.6696C49.8003 46.7015 49.3321 46.744 48.8533 46.776C47.5978 46.8717 46.3423 46.9675 45.0868 47.0632C43.2993 47.2016 41.6075 47.4676 39.8519 47.4356C39.3305 47.4356 38.7985 47.3931 38.2665 47.308C37.6813 47.2228 36.7663 47.0952 36.3088 46.6589C35.8087 46.1695 35.7661 45.3502 35.7874 44.6267C35.8619 42.3604 38.2878 41.3176 40.2562 41.041C43.129 40.626 45.9912 40.5941 48.8853 40.3707C49.396 40.3281 49.9067 40.2962 50.4068 40.2536C50.8962 40.2217 51.375 40.1898 51.8645 40.1579C52.0241 40.1472 52.2049 40.1579 52.3007 40.2749C52.3645 40.36 52.3645 40.4771 52.3752 40.5941C52.3965 42.488 52.3539 44.3713 52.2581 46.2652Z" fill="#51333B"/>
<path d="M50.4167 40.2642C50.4167 40.9452 50.4167 41.6262 50.4167 42.2965C50.3954 43.7542 50.3529 45.2118 50.289 46.6695C49.8102 46.7014 49.3421 46.744 48.8633 46.7759C48.8633 46.3929 48.8633 46.0098 48.8633 45.6374C48.8633 43.8818 48.8633 42.1262 48.9058 40.3706C49.4166 40.3281 49.9273 40.2962 50.4274 40.2536L50.4167 40.2642Z" fill="#965F6F"/>
<path d="M55.8126 99.1247H54.5996V33.6887C54.5996 30.0818 55.7168 26.6982 57.7491 24.134C59.8132 21.5378 62.569 20.1014 65.5163 20.1014H76.9011V21.3144H65.5163C60.1643 21.3144 55.8126 26.8685 55.8126 33.6887V99.1354V99.1247Z" fill="#965F6F"/>
<path d="M99.2135 99.1248H98.0006V33.6888C98.0006 26.8685 93.6488 21.3145 88.2969 21.3145H76.9121V20.1015H88.2969C91.2442 20.1015 94 21.5273 96.0641 24.1341C98.0963 26.6877 99.2135 30.0818 99.2135 33.6888V99.1354V99.1248Z" fill="#965F6F"/>
<path d="M56.2074 41.924C56.1648 41.4239 56.1435 40.9026 56.0478 40.4131C55.9733 40.0301 56.3563 39.6896 56.3563 39.2959C56.3563 39.1363 56.2925 38.9767 56.1967 38.8491C56.1435 38.7852 56.0584 38.7214 55.9733 38.7214C55.8669 38.7214 55.7711 38.8065 55.6966 38.881C55.5264 39.0831 55.4413 39.3066 55.3242 39.5407C55.2072 39.7747 55.0476 39.9769 54.9306 40.211C54.8774 40.3174 54.888 40.4663 54.9306 40.5834C54.9518 40.6259 54.9731 40.6472 55.0157 40.6685C55.037 40.6685 55.2178 40.7111 55.2285 40.6898C55.1221 40.8919 55.0582 41.1473 55.1114 41.3601C55.154 41.4984 55.271 41.5729 55.4094 41.5835C55.2923 41.7751 55.0902 42.19 55.4306 42.2751C55.5158 42.2964 55.6115 42.2858 55.6966 42.2751C55.6222 42.4028 55.5796 42.5518 55.6009 42.6901C55.6115 42.8071 55.686 42.9348 55.803 42.9455C55.8562 42.9455 55.9201 42.9348 55.9733 42.9029C56.2925 42.7327 56.218 42.19 56.1967 41.8921L56.2074 41.924Z" fill="#FDB082"/>
<path d="M55.1954 39.0406C54.823 38.615 54.4081 39.4024 54.2378 39.6258C54.025 39.9025 53.8122 40.1898 53.5249 40.4026C53.3015 40.5728 53.0355 40.6898 52.8546 40.9133C52.7376 41.0622 52.6631 41.2431 52.6099 41.4346C52.4929 41.8283 52.4609 42.2326 52.4609 42.637C52.4609 42.903 52.4609 43.286 52.7163 43.4562C53.1845 43.7754 53.8548 43.4988 54.1846 43.1051C54.6102 42.5838 54.5889 41.8922 54.6315 41.2538C54.6528 40.8388 54.8337 40.4983 55.0252 40.1259C55.1529 39.8706 55.4295 39.3598 55.2273 39.0832C55.2273 39.0832 55.2167 39.0619 55.2061 39.0513L55.1954 39.0406Z" fill="#FDB082"/>
<path d="M56.6534 40.9133C56.6534 40.9133 56.6534 40.8601 56.6215 40.8494C56.579 40.8388 56.5258 40.8494 56.4938 40.8707C56.3342 40.9984 56.1853 41.1261 56.0257 41.2537C55.8767 41.3708 55.7171 41.4878 55.5362 41.5091C55.4511 41.5197 55.3554 41.5091 55.3022 41.4453C55.249 41.3814 55.2383 41.2857 55.2383 41.2112C55.249 41.0197 55.3447 40.8388 55.4618 40.7005C55.4724 40.6898 55.4724 40.6792 55.4618 40.6685C55.6533 40.5834 55.8235 40.4345 55.9725 40.2855C56.1746 40.0833 56.3449 39.8493 56.4832 39.5833C56.5151 39.5194 56.3342 39.4981 56.3023 39.562C56.1108 39.9557 55.8129 40.3174 55.4298 40.5515C55.3447 40.6047 55.2383 40.6579 55.1426 40.6366C55.0362 40.6153 54.9617 40.5196 54.951 40.4132C54.951 40.3919 54.951 40.3813 54.951 40.36C55.0042 40.2323 55.0574 40.1046 55.1213 39.9769C55.1638 39.9237 55.2064 39.8812 55.249 39.828C55.4192 39.6365 55.5575 39.413 55.6426 39.1683C55.6639 39.0938 55.483 39.0832 55.4618 39.147C55.4192 39.2641 55.366 39.3811 55.3022 39.4875C55.3234 39.3811 55.3234 39.2747 55.2915 39.1683C55.2277 38.9555 55.0149 38.8704 54.8127 38.9449C54.5893 39.0193 54.4616 39.2853 54.3233 39.4556C53.9296 39.9557 53.4614 40.3919 52.9507 40.7643C52.9188 40.7856 52.9507 40.8175 52.9826 40.8281C53.0252 40.8388 53.0784 40.8281 53.1103 40.8069C53.504 40.5196 53.8764 40.2004 54.1956 39.8386C54.3552 39.6684 54.4935 39.4875 54.6318 39.296C54.6957 39.2109 54.7595 39.1151 54.8446 39.0513C55.0042 38.9342 55.1 39.1151 55.1213 39.2534C55.1532 39.4981 55.0468 39.7322 54.9404 39.9557C54.8446 40.0727 54.7702 40.211 54.7595 40.3493C54.717 40.4557 54.685 40.5621 54.6531 40.6685C54.5254 41.1473 54.4829 41.6474 54.4084 42.1262C54.3233 42.6369 54.1637 43.2647 53.6104 43.4562C53.4934 43.4988 53.6423 43.5626 53.7062 43.5413C54.1956 43.3711 54.4403 42.9029 54.5467 42.4241C54.6744 41.8389 54.6957 41.2325 54.8553 40.6579C54.8553 40.6473 54.8553 40.626 54.8659 40.6153C54.9617 40.7111 55.1106 40.743 55.2383 40.7324C55.1213 40.8813 55.0468 41.0622 55.0468 41.2431C55.0468 41.3389 55.0787 41.4453 55.1532 41.5091C55.2277 41.5836 55.3447 41.6049 55.4511 41.6049C55.4618 41.6049 55.4724 41.6049 55.483 41.6049C55.4298 41.6049 55.3766 41.6793 55.3447 41.7113C55.3022 41.7645 55.2702 41.8283 55.249 41.8921C55.217 41.9773 55.217 42.0624 55.2064 42.1475C55.2064 42.1794 55.2064 42.2113 55.2064 42.2433C55.2277 42.3284 55.3128 42.3603 55.3979 42.3709C55.483 42.3816 55.5682 42.3709 55.6426 42.339C55.5788 42.4454 55.5575 42.5731 55.5469 42.6901C55.5469 42.7753 55.5362 42.8817 55.5788 42.9561C55.632 43.0413 55.7703 43.0625 55.8554 43.0093C55.8874 42.9881 55.8874 42.9561 55.8554 42.9455C55.8342 42.9349 55.7916 42.9242 55.7597 42.9349C55.7597 42.9349 55.7597 42.9242 55.749 42.9136C55.7384 42.8817 55.7278 42.8497 55.7278 42.8072C55.7278 42.7433 55.7278 42.6795 55.7278 42.6157C55.7384 42.488 55.781 42.3603 55.8767 42.2752C55.8874 42.2539 55.8874 42.2433 55.8767 42.2326C55.898 42.222 55.9193 42.2113 55.9406 42.2007C56.1002 42.1156 56.2385 42.0198 56.3874 41.9134C56.3874 41.9134 56.3981 41.9134 56.4087 41.9134C56.4194 41.9028 56.4406 41.8921 56.4513 41.8815C56.4832 41.8602 56.4513 41.8283 56.4194 41.8177C56.3768 41.807 56.3236 41.8177 56.2917 41.8389C56.1746 41.9241 56.047 42.0092 55.9193 42.0837C55.7916 42.1581 55.6639 42.2433 55.5256 42.2752C55.483 42.2858 55.3979 42.3071 55.3766 42.2539C55.366 42.222 55.3766 42.1794 55.3766 42.1475C55.3766 42.1156 55.3766 42.0837 55.3979 42.0411C55.4086 41.9666 55.4405 41.9028 55.4724 41.8389C55.5256 41.7219 55.6214 41.6368 55.7171 41.5623C55.7703 41.5304 55.8129 41.5197 55.8661 41.4985C55.9299 41.4665 55.9938 41.424 56.0576 41.3814C56.2704 41.2325 56.4619 41.0622 56.6534 40.9026V40.9133Z" fill="#ED7D6B"/>
<path d="M59.8343 57.4796C59.4193 57.7562 59.0576 58.1393 58.8022 58.6926C58.4405 59.4693 58.3553 60.3418 58.2809 61.2036C58.1213 63.0018 57.951 64.7893 57.7914 66.5874C57.7808 66.747 57.7595 66.9066 57.8233 67.045C58.0681 67.6727 59.2172 67.6195 59.7279 67.5663C62.0474 67.311 64.3457 67.6408 66.6652 67.6621C69.0273 67.6834 71.4106 67.8855 73.7727 68.0132C74.6665 68.0664 75.6134 68.0983 76.4114 67.694C76.8689 67.4599 77.252 67.045 77.4222 66.5555C77.6457 65.8958 77.3158 65.5341 77.1349 64.9382L76.1241 61.6718C75.8156 60.6716 75.39 59.7353 74.8154 58.8734C74.2834 58.0754 73.4216 57.6073 72.5065 57.32C71.9426 57.1498 71.3574 57.0646 70.7722 56.9902C68.7719 56.7454 66.7503 56.671 64.7287 56.7454C63.154 56.8093 61.2388 56.5646 59.8449 57.469L59.8343 57.4796Z" fill="white"/>
<path d="M62.4414 57.32C62.4733 55.9581 62.8032 54.5962 63.3777 53.3726C63.7501 52.5746 64.1651 52.0213 64.6652 51.6489C65.4632 51.0424 66.4952 50.9467 67.3784 51.4042C68.3572 51.9149 68.9105 52.8299 69.1978 53.5109C69.6766 54.6494 69.7936 55.9155 69.8575 57.0008L69.1446 57.0434C69.0808 55.9581 68.985 54.8196 68.5488 53.7875C68.2083 52.9789 67.6763 52.3511 67.0592 52.0319C66.4314 51.7021 65.6866 51.7766 65.112 52.2128C64.7077 52.5214 64.3672 52.9895 64.0374 53.6811C63.4948 54.8196 63.1968 56.0858 63.1649 57.3413L62.452 57.32H62.4414Z" fill="white"/>
<path d="M63.0057 58.15C62.612 58.1606 62.2822 57.8521 62.2715 57.4584L62.2503 56.8838C62.2396 56.4901 62.5482 56.1603 62.9419 56.1497C63.3355 56.139 63.6654 56.4476 63.676 56.8413L63.6973 57.4158C63.7079 57.8095 63.3994 58.1393 63.0057 58.15Z" fill="#965F6F"/>
<path d="M69.6229 57.9265C69.2292 57.9372 68.8994 57.6286 68.8887 57.2349L68.8675 56.6604C68.8568 56.2667 69.1654 55.9368 69.5591 55.9262C69.9527 55.9156 70.2826 56.2241 70.2932 56.6178L70.3145 57.1924C70.3251 57.586 70.0166 57.9159 69.6229 57.9265Z" fill="#965F6F"/>
<path d="M63.0042 63.7679C62.9085 63.7573 62.834 63.6828 62.834 63.5764C62.834 63.47 62.9191 63.3849 63.0255 63.3742C65.7174 63.2891 68.4413 63.2466 71.1438 63.2466C71.2502 63.2466 71.3353 63.3317 71.3353 63.4381C71.3353 63.5445 71.2502 63.6296 71.1438 63.6296C68.4519 63.6296 65.7281 63.6722 63.0468 63.7573C63.0468 63.7573 63.0255 63.7573 63.0149 63.7573L63.0042 63.7679Z" fill="#965F6F"/>
<path d="M63.3245 64.6085C63.2606 65.1192 63.0372 65.5129 62.8244 65.481C62.6116 65.4597 62.4839 65.0235 62.5477 64.5128C62.6116 64.002 62.835 63.6084 63.0478 63.6403C63.2606 63.6616 63.3883 64.0978 63.3245 64.6085Z" fill="#965F6F"/>
<path d="M81.2736 77.9404V85.4841C81.2843 86.1651 80.8055 86.729 80.199 86.729L54.1948 86.761C53.599 86.761 53.1095 86.2077 53.1095 85.5267V77.983C53.0989 77.302 53.5777 76.7381 54.1842 76.7381L80.1883 76.7061C80.7842 76.7061 81.2736 77.2594 81.2736 77.9404Z" fill="#627BBB"/>
<path d="M81.2665 80.5358L53.0918 80.5751L53.0927 81.1922L81.2674 81.1529L81.2665 80.5358Z" fill="#21201B"/>
<path d="M62.1434 82.2283H63.7713C63.9735 82.2283 64.1331 82.3879 64.1331 82.5901V83.3668C64.1331 83.569 63.9735 83.7286 63.7713 83.7286H62.1434C61.7923 83.7286 61.5156 83.4519 61.5156 83.1115V82.8455C61.5156 82.505 61.7923 82.2283 62.1434 82.2283Z" fill="white"/>
<path d="M72.7834 82.8242V83.0902C72.7834 83.4306 72.5068 83.7073 72.1556 83.7073H70.5916C70.4107 83.7073 70.2617 83.5583 70.2617 83.3774V82.5369C70.2617 82.356 70.4107 82.207 70.5916 82.207H72.1556C72.4961 82.207 72.7834 82.4837 72.7834 82.8242Z" fill="white"/>
<path d="M70.8677 83.4944H63.5261C63.2282 83.5051 62.9941 83.271 62.9941 82.9731C62.9941 82.6752 63.2282 82.4411 63.5261 82.4411H70.8677C71.1657 82.4304 71.3997 82.6645 71.3997 82.9624C71.3997 83.2604 71.1657 83.4944 70.8677 83.4944Z" fill="#21201B"/>
<path d="M52.8226 97.4116H81.6995C82.2954 97.3371 82.7529 96.7732 82.7529 96.0922V88.0484C82.7423 87.3142 82.2103 86.729 81.5506 86.729L53.1205 86.7716C52.4608 86.7716 51.9395 87.3674 51.9395 88.1016V96.1454C51.9501 96.7519 52.3225 97.2626 52.8226 97.4222V97.4116Z" fill="#F492A1"/>
<path d="M54.2581 86.7716L51.9492 89.1656V88.1016C51.9492 87.3674 52.4812 86.7822 53.1303 86.7716H54.2581Z" fill="#965F6F"/>
<path d="M82.7414 88.0484V89.1124L80.4219 86.729H81.5497C82.2094 86.729 82.7414 87.3142 82.7414 88.0484Z" fill="#965F6F"/>
<path d="M81.698 97.4116C82.2939 97.3372 82.7514 96.7732 82.7514 96.0923V95.0283L80.4531 97.4116H81.7086H81.698Z" fill="#965F6F"/>
<path d="M52.8217 97.4117H54.2262L51.9492 95.0709V96.1349C51.9492 96.7413 52.3216 97.2521 52.8217 97.4117Z" fill="#965F6F"/>
<path d="M82.752 90.3195L51.9492 90.3679L51.9504 91.134L82.7532 91.0856L82.752 90.3195Z" fill="#21201B"/>
<path d="M61.8246 92.4321H63.6015C63.8249 92.4321 64.0058 92.6342 64.0058 92.879V93.8365C64.0058 94.0813 63.8249 94.2834 63.6121 94.2834H61.8353C61.4522 94.2834 61.1543 93.943 61.1543 93.528V93.1981C61.1543 92.7725 61.4629 92.4321 61.8353 92.4321H61.8246Z" fill="#FDC87A"/>
<path d="M73.4647 93.1769V93.5067C73.4647 93.9323 73.1562 94.2728 72.7838 94.2728H71.0707C70.8686 94.2728 70.709 94.0919 70.709 93.8685V92.8257C70.709 92.6023 70.8686 92.4214 71.0707 92.4214H72.7838C73.1668 92.4214 73.4647 92.7619 73.4647 93.1769Z" fill="#FDC87A"/>
<path d="M71.3046 94.0068H63.3884C63.0373 94.0174 62.75 93.7301 62.75 93.379V93.3258C62.75 92.9747 63.0373 92.6874 63.3884 92.6874H71.3046C71.6557 92.6768 71.943 92.9641 71.943 93.3152V93.3684C71.943 93.7195 71.6557 94.0068 71.3046 94.0068Z" fill="white"/>
<path d="M58.3021 86.9845C58.3021 87.825 58.1531 88.5166 57.9616 88.5166C57.7701 88.5166 57.6211 87.8357 57.6211 86.9951C57.6211 86.9206 57.6211 86.8461 57.6211 86.7717H58.3021C58.3021 86.8461 58.3021 86.91 58.3021 86.9845Z" fill="white"/>
<path d="M61.431 86.9738C61.431 87.8144 61.282 88.506 61.0905 88.506C60.899 88.506 60.75 87.825 60.75 86.9845C60.75 86.91 60.75 86.8355 60.75 86.761H61.431C61.431 86.8355 61.431 86.8993 61.431 86.9738Z" fill="white"/>
<path d="M64.5579 86.9738C64.5579 87.8144 64.409 88.506 64.2174 88.506C64.0259 88.506 63.877 87.825 63.877 86.9845C63.877 86.91 63.877 86.8355 63.877 86.761H64.5579C64.5579 86.8355 64.5579 86.8993 64.5579 86.9738Z" fill="white"/>
<path d="M67.6868 86.9632C67.6868 87.8038 67.5379 88.4954 67.3463 88.4954C67.1548 88.4954 67.0059 87.8144 67.0059 86.9738C67.0059 86.8994 67.0059 86.8249 67.0059 86.7504H67.6868C67.6868 86.8249 67.6868 86.8887 67.6868 86.9632Z" fill="white"/>
<path d="M70.8138 86.9632C70.8138 87.8038 70.6648 88.4954 70.4733 88.4954C70.2818 88.4954 70.1328 87.8144 70.1328 86.9738C70.1328 86.8994 70.1328 86.8249 70.1328 86.7504H70.8138C70.8138 86.8249 70.8138 86.8887 70.8138 86.9632Z" fill="white"/>
<path d="M73.9427 86.9632C73.9427 87.8038 73.7937 88.4954 73.6022 88.4954C73.4107 88.4954 73.2617 87.8144 73.2617 86.9738C73.2617 86.8994 73.2617 86.8249 73.2617 86.7504H73.9427C73.9427 86.8249 73.9427 86.8887 73.9427 86.9632Z" fill="white"/>
<path d="M77.0716 86.9526C77.0716 87.7931 76.9226 88.4847 76.7311 88.4847C76.5396 88.4847 76.3906 87.8038 76.3906 86.9632C76.3906 86.8887 76.3906 86.8142 76.3906 86.7504H77.0716C77.0716 86.8249 77.0716 86.8887 77.0716 86.9632V86.9526Z" fill="white"/>
<path d="M82.3274 73.6524V70.6307C82.3061 70.4179 82.1572 70.237 81.9444 70.2157C81.6997 70.1838 81.4869 70.3859 81.4869 70.6307V73.6524C81.4762 73.8652 81.6252 74.0461 81.838 74.078H81.8699C82.1146 74.1099 82.3381 73.9078 82.3274 73.6631V73.6524Z" fill="#21201B"/>
<path d="M80.6354 76.7274L56.3975 76.77C55.8442 76.77 55.3867 76.2486 55.3867 75.6102V73.6099V72.8545V71.2265V70.5562V68.5665C55.3867 67.9281 55.8336 67.4068 56.3975 67.4068L80.6354 67.3642C81.1994 67.3642 81.6462 67.8856 81.6462 68.524V70.5137V71.184V72.8119V73.5673V75.5677C81.6462 76.2061 81.1994 76.7274 80.6354 76.7274Z" fill="#FDC87A"/>
<path d="M81.6403 72.8262L55.3809 72.872L55.3822 73.6275L81.6417 73.5816L81.6403 72.8262Z" fill="#21201B"/>
<path d="M60.7922 67.8111C60.7922 69.3645 60.6646 70.62 60.505 70.62C60.3454 70.62 60.207 69.3645 60.207 67.8111C60.207 67.6727 60.207 67.5451 60.207 67.4067H60.7816C60.7816 67.5344 60.7816 67.6727 60.7816 67.8111H60.7922Z" fill="#965F6F"/>
<path d="M63.4622 67.8111C63.4622 69.3645 63.3345 70.62 63.1749 70.62C63.0153 70.62 62.877 69.3645 62.877 67.8111C62.877 67.6727 62.877 67.5451 62.877 67.4067H63.4515C63.4515 67.5344 63.4515 67.6727 63.4515 67.8111H63.4622Z" fill="#965F6F"/>
<path d="M66.134 67.8004C66.134 69.3538 66.0064 70.6094 65.8468 70.6094C65.6872 70.6094 65.5488 69.3538 65.5488 67.8004C65.5488 67.6621 65.5488 67.5344 65.5488 67.3961H66.1234C66.1234 67.5238 66.1234 67.6621 66.1234 67.8004H66.134Z" fill="#965F6F"/>
<path d="M68.8039 67.8004C68.8039 69.3538 68.6763 70.6094 68.5167 70.6094C68.3571 70.6094 68.2188 69.3538 68.2188 67.8004C68.2188 67.6621 68.2188 67.5344 68.2188 67.3961H68.7933C68.7933 67.5238 68.7933 67.6621 68.7933 67.8004H68.8039Z" fill="#965F6F"/>
<path d="M71.4641 67.8004C71.4641 69.3538 71.3364 70.6094 71.1768 70.6094C71.0172 70.6094 70.8789 69.3538 70.8789 67.8004C70.8789 67.6621 70.8789 67.5344 70.8789 67.3961H71.4535C71.4535 67.5238 71.4535 67.6621 71.4535 67.8004H71.4641Z" fill="#965F6F"/>
<path d="M74.134 67.7898C74.134 69.3432 74.0063 70.5987 73.8467 70.5987C73.6871 70.5987 73.5488 69.3432 73.5488 67.7898C73.5488 67.6514 73.5488 67.5238 73.5488 67.3854H74.1234C74.1234 67.5131 74.1234 67.6514 74.1234 67.7898H74.134Z" fill="#965F6F"/>
<path d="M76.8059 67.7898C76.8059 69.3432 76.6782 70.5987 76.5186 70.5987C76.359 70.5987 76.2207 69.3432 76.2207 67.7898C76.2207 67.6514 76.2207 67.5238 76.2207 67.3854H76.7953C76.7953 67.5131 76.7953 67.6514 76.7953 67.7898H76.8059Z" fill="#965F6F"/>
<path d="M87.6897 94.6558H88.1792C88.4558 94.6558 88.6367 94.9537 88.4877 95.1984L88.243 95.624L87.9983 96.0496C87.86 96.2943 87.5089 96.2943 87.3705 96.0496L87.1258 95.624L86.8811 95.1984C86.7428 94.9537 86.913 94.6558 87.1897 94.6558H87.6791H87.6897Z" fill="#21201B"/>
<path d="M88.8057 96.5922C88.8057 97.071 88.4227 97.4541 87.9439 97.4541C87.4651 97.4541 87.082 97.071 87.082 96.5922C87.082 96.1134 87.4651 95.7304 87.9439 95.7304C88.4227 95.7304 88.8057 96.1134 88.8057 96.5922Z" fill="#965F6F"/>
<path d="M88.2959 96.5922C88.2959 97.071 87.9129 97.4541 87.4341 97.4541C86.9553 97.4541 86.5723 97.071 86.5723 96.5922C86.5723 96.1134 86.9553 95.7304 87.4341 95.7304C87.9129 95.7304 88.2959 96.1134 88.2959 96.5922Z" fill="#21201B"/>
<path d="M94.1819 94.6665H94.6714C94.948 94.6665 95.1289 94.9644 94.9799 95.2091L94.7352 95.6347L94.4905 96.0603C94.3522 96.3051 94.0011 96.3051 93.8627 96.0603L93.618 95.6347L93.3733 95.2091C93.235 94.9644 93.4052 94.6665 93.6819 94.6665H94.1713H94.1819Z" fill="#21201B"/>
<path d="M95.2999 96.5923C95.2999 97.0711 94.9168 97.4541 94.438 97.4541C93.9592 97.4541 93.5762 97.0711 93.5762 96.5923C93.5762 96.1135 93.9592 95.7305 94.438 95.7305C94.9168 95.7305 95.2999 96.1135 95.2999 96.5923Z" fill="#965F6F"/>
<path d="M94.7881 96.5923C94.7881 97.0711 94.4051 97.4541 93.9263 97.4541C93.4475 97.4541 93.0645 97.0711 93.0645 96.5923C93.0645 96.1135 93.4475 95.7305 93.9263 95.7305C94.4051 95.7305 94.7881 96.1135 94.7881 96.5923Z" fill="#21201B"/>
<path d="M98.6292 94.6665H99.1186C99.3953 94.6665 99.5762 94.9644 99.4272 95.2091L99.1825 95.6347L98.9378 96.0603C98.7994 96.3051 98.4483 96.3051 98.31 96.0603L98.0653 95.6347L97.8206 95.2091C97.6822 94.9644 97.8525 94.6665 98.1291 94.6665H98.6186H98.6292Z" fill="#21201B"/>
<path d="M99.7471 96.5923C99.7471 97.0711 99.3641 97.4541 98.8853 97.4541C98.4065 97.4541 98.0234 97.0711 98.0234 96.5923C98.0234 96.1135 98.4065 95.7305 98.8853 95.7305C99.3641 95.7305 99.7471 96.1135 99.7471 96.5923Z" fill="#965F6F"/>
<path d="M99.2354 96.5923C99.2354 97.0711 98.8524 97.4541 98.3736 97.4541C97.8948 97.4541 97.5117 97.0711 97.5117 96.5923C97.5117 96.1135 97.8948 95.7305 98.3736 95.7305C98.8524 95.7305 99.2354 96.1135 99.2354 96.5923Z" fill="#21201B"/>
<path d="M95.1066 68.8219H90.2973C89.8824 68.8219 89.5312 68.4814 89.5312 68.0558V67.8111C89.5312 67.3961 89.8717 67.045 90.2973 67.045H95.1066C95.5216 67.045 95.8727 67.3855 95.8727 67.8111V68.0558C95.8727 68.4708 95.5322 68.8219 95.1066 68.8219ZM90.2973 67.6196C90.1909 67.6196 90.1058 67.7047 90.1058 67.8111V68.0558C90.1058 68.1622 90.1909 68.2473 90.2973 68.2473H95.1066C95.213 68.2473 95.2981 68.1622 95.2981 68.0558V67.8111C95.2981 67.7047 95.213 67.6196 95.1066 67.6196H90.2973Z" fill="#21201B"/>
<path d="M100.341 69.2794V93.9323C100.341 94.6239 99.8731 95.1772 99.2986 95.1772H86.8923C86.3178 95.1772 85.8496 94.6133 85.8496 93.9217V69.2688C85.8602 68.5772 86.3284 68.0239 86.8923 68.0239H99.3092C99.8731 68.0239 100.341 68.5878 100.341 69.2794Z" fill="#218885"/>
<path d="M100.341 69.2794V93.9323C100.341 94.6239 100.075 95.1878 99.7667 95.1878H93.021C92.7124 95.1878 92.457 94.6239 92.457 93.9323V69.2794C92.457 68.5878 92.723 68.0239 93.0316 68.0239H99.7774C100.086 68.0239 100.341 68.5878 100.341 69.2794Z" fill="#218885"/>
<path d="M92.4563 68.0239C92.3392 68.2793 92.2754 68.5985 92.2754 68.9709V95.1772H92.6372V68.9709C92.6478 68.5453 92.7542 68.2154 92.8606 68.0239H92.4456H92.4563Z" fill="#1E5D5E"/>
<path d="M99.2994 78.9725V78.2702C99.2994 77.9085 99.0121 77.6212 98.6504 77.6212H98.5865C98.2248 77.6212 97.9375 77.9085 97.9375 78.2702V78.9725C97.9375 79.1321 98.0652 79.2704 98.2354 79.2704H99.0015C99.1611 79.2704 99.2994 79.1321 99.2994 78.9725Z" fill="#FDC87A"/>
<path d="M97.9375 84.4521V84.9096C97.9375 85.2714 98.2248 85.5587 98.5865 85.5587H98.6504C99.0121 85.5587 99.2994 85.2714 99.2994 84.9096V84.4521C99.2994 84.2925 99.1611 84.1542 99.0015 84.1542H98.2354C98.0758 84.1542 97.9375 84.2925 97.9375 84.4521Z" fill="#FDC87A"/>
<path d="M98.8735 85.0798C98.6182 85.0798 98.416 84.8777 98.416 84.6223V78.5788C98.416 78.3234 98.6182 78.1213 98.8735 78.1213C99.1289 78.1213 99.3311 78.3234 99.3311 78.5788V84.6223C99.3311 84.8777 99.1289 85.0798 98.8735 85.0798Z" fill="#21201B"/>
<path d="M92.4783 74.642H85.8496V75.1527H92.4783V74.642Z" fill="#1E5D5E"/>
<path d="M92.4783 78.1213H85.8496V78.632H92.4783V78.1213Z" fill="#1E5D5E"/>
<path d="M92.4783 81.6005H85.8496V82.1112H92.4783V81.6005Z" fill="#1E5D5E"/>
<path d="M92.4783 85.0798H85.8496V85.5905H92.4783V85.0798Z" fill="#1E5D5E"/>
<path d="M96.3194 68.0239V88.5804C96.3194 88.7081 96.0215 88.7081 96.0215 88.5804V68.0239H96.3194Z" fill="#21201B"/>
<path d="M51.0665 99.1248H49.8535V33.6888C49.8535 26.1982 55.7055 20.1122 62.8982 20.1122H76.6344V21.3251H62.8982C56.3758 21.3251 51.0665 26.8792 51.0665 33.6994V99.1461V99.1248Z" fill="#965F6F"/>
<path d="M103.404 99.1248H102.191V33.6888C102.191 26.8686 96.8816 21.3145 90.3593 21.3145H76.623V20.1015H90.3593C97.5519 20.1015 103.404 26.1983 103.404 33.6782V99.1248Z" fill="#965F6F"/>
<path d="M58.3765 104.998C58.3765 107.318 56.5039 109.19 54.1843 109.19C51.8648 109.19 49.9922 107.318 49.9922 104.998C49.9922 102.678 51.8648 100.806 54.1843 100.806C56.5039 100.806 58.3765 102.678 58.3765 104.998Z" fill="#21201B"/>
<path d="M54.1843 106.956C55.2656 106.956 56.1421 106.079 56.1421 104.998C56.1421 103.917 55.2656 103.04 54.1843 103.04C53.1031 103.04 52.2266 103.917 52.2266 104.998C52.2266 106.079 53.1031 106.956 54.1843 106.956Z" fill="#FDC87A"/>
<path d="M54.1844 105.456C53.6736 105.456 53.248 105.041 53.248 104.519V99.2098C53.248 98.6991 53.663 98.2735 54.1844 98.2735C54.6951 98.2735 55.1207 98.6885 55.1207 99.2098V104.519C55.1207 105.03 54.7057 105.456 54.1844 105.456Z" fill="#965F6F"/>
<path d="M102.798 104.998C102.798 107.318 100.926 109.19 98.6062 109.19C96.2867 109.19 94.4141 107.318 94.4141 104.998C94.4141 102.678 96.2867 100.806 98.6062 100.806C100.926 100.806 102.798 102.678 102.798 104.998Z" fill="#21201B"/>
<path d="M100.564 104.998C100.564 106.083 99.6915 106.956 98.6062 106.956C97.5209 106.956 96.6484 106.083 96.6484 104.998C96.6484 103.913 97.5209 103.04 98.6062 103.04C99.6915 103.04 100.564 103.913 100.564 104.998Z" fill="#FDC87A"/>
<path d="M98.2544 104.051C98.2331 104.115 98.2118 104.189 98.1905 104.253C98.0629 104.647 97.9352 105.136 98.1799 105.434C98.414 105.722 98.8183 105.583 99.1162 105.381C100.51 104.477 101.361 103.083 101.893 101.317C102.106 100.636 102.138 99.8483 101.893 99.1886C101.478 98.082 99.7227 97.2521 99.1907 98.6353C98.8928 99.4014 99.0098 100.348 98.9034 101.168C98.7651 102.147 98.5523 103.115 98.265 104.051H98.2544Z" fill="#965F6F"/>
<path d="M105.129 97.4756H49.0664V99.1248H105.129V97.4756Z" fill="#21201B"/>
<path d="M78.9546 22.1974H74.2942C73.5175 22.1974 72.9004 21.5696 72.9004 20.8035C72.9004 20.0268 73.5281 19.4097 74.2942 19.4097H78.9546C79.7313 19.4097 80.3484 20.0375 80.3484 20.8035C80.3484 21.5803 79.7206 22.1974 78.9546 22.1974Z" fill="#965F6F"/>
<path d="M77.838 18.1968C77.838 18.8671 77.2954 19.4097 76.6251 19.4097C75.9547 19.4097 75.4121 18.8671 75.4121 18.1968C75.4121 17.5265 75.9547 16.9838 76.6251 16.9838C77.2954 16.9838 77.838 17.5265 77.838 18.1968Z" fill="#965F6F"/>
</svg>
