<svg width="112" height="117" viewBox="0 0 112 117" fill="none" xmlns="http://www.w3.org/2000/svg">
<path d="M46.9477 23.9018H49.7852C52.4662 23.9018 54.5526 21.5933 54.2709 18.9415L53.9475 15.853H42.7644L42.4515 18.9623C42.1803 21.6141 44.2667 23.9122 46.9372 23.9122L46.9477 23.9018Z" fill="#D96426"/>
<path d="M51.9343 24.6089L48.3978 23.9225L44.8301 24.6193C44.8301 27.3438 45.7794 34.6855 48.3665 35.9646C50.8598 34.7479 51.9447 27.3334 51.9447 24.6089H51.9343Z" fill="white"/>
<path d="M51.6213 29.1844C51.8299 27.7701 51.9343 26.4807 51.9343 25.6487L48.3978 24.9624L44.8301 25.6591C44.8301 26.4911 44.924 27.7805 45.1222 29.1844C47.2503 30.3179 49.4201 30.3075 51.6317 29.1844H51.6213Z" fill="#FFB38E"/>
<path d="M46.207 25.1703C46.207 28.342 50.5885 28.342 50.5885 25.1703V19.1077H46.207V25.1703Z" fill="#FFB38E"/>
<path d="M47.4162 24.1409C48.0421 24.4217 48.741 24.4217 49.3669 24.1409C51.5785 23.1426 53.0181 20.8444 53.0181 18.2863V15.9153C53.0181 13.2116 50.9526 11.0174 48.3968 11.0174C45.8409 11.0174 43.7754 13.2116 43.7754 15.9153V18.2863C43.7754 20.834 45.215 23.1426 47.4266 24.1409H47.4162Z" fill="#FFCCA8"/>
<path d="M43.963 19.4614L44.3177 17.9743C47.0613 17.9743 48.9182 17.3504 51.0359 15.0834L52.8302 19.5758C52.9658 19.9085 53.4352 19.8981 53.5604 19.5654C54.1759 17.8911 54.0507 15.4058 53.5813 14.0227C53.0075 12.3173 52.0478 11.9221 51.1298 11.7973L50.9628 11.2774C50.4308 9.72792 40.6561 8.9272 43.2015 19.4718C43.2953 19.8669 43.8587 19.8669 43.9526 19.4718L43.963 19.4614Z" fill="#FE8236"/>
<path d="M36.6191 30.0371C36.6191 30.2555 39.4462 43.1502 39.4462 43.1502L39.9782 52.0518H48.449V45.6772C46.7277 40.5089 45.2985 32.0649 44.9439 25.212L43.3269 26.6575L36.6191 30.0371Z" fill="#9E5C5C"/>
<path d="M59.9556 30.0371C59.9556 30.2555 57.0868 43.1502 57.0868 43.1502L56.513 52.0517H48.084V45.6772C49.8053 40.5089 50.9319 32.2209 51.2866 25.368L52.6636 26.3351L59.9556 30.0371Z" fill="#9E5C5C"/>
<path d="M49.722 49.3272C49.722 49.5872 49.5238 49.7951 49.2838 49.7951C49.0439 49.7951 48.8457 49.5872 48.8457 49.3272C48.8457 49.0672 49.0439 48.8592 49.2838 48.8592C49.5238 48.8592 49.722 49.0672 49.722 49.3272Z" fill="#7F4141"/>
<path d="M36.6188 30.0372C36.6188 30.0372 35.3565 30.8379 35.0435 32.7305C34.9809 33.0945 32.4355 45.8436 32.4355 45.8436C32.4355 45.8436 32.9989 48.7658 34.4698 48.9321C35.9407 49.0985 39.9779 41.944 39.9779 41.944L36.6188 30.0268V30.0372Z" fill="#9E5C5C"/>
<path d="M28.0442 33.8951L27.627 32.564C28.9518 30.9834 30.7357 30.0891 32.0188 30.3179L32.3735 32.1481L30.527 36.0997L28.0442 33.8951Z" fill="#F2E5DC"/>
<path d="M31.6321 30.6299C31.4338 29.8396 30.7871 28.4358 30.7871 28.4358L28.1582 29.3405C28.1582 29.3405 28.8884 32.4498 28.9093 32.6889C28.9302 32.9281 31.8303 31.4099 31.6321 30.6195V30.6299Z" fill="#FDB082"/>
<path d="M24.2984 24.224C24.3088 24.3176 25.4772 25.7111 25.5502 25.7943C25.5502 25.7943 24.3297 24.5984 24.2358 24.6504C24.1419 24.7128 24.1106 25.9398 24.1211 26.0958C24.1315 26.387 24.4132 26.9381 24.8826 27.5309C25.2894 28.0508 26.4787 28.8932 26.4787 28.8932L29.4831 31.1185L31.0062 29.7979C31.0062 29.7979 31.0479 27.5829 30.6515 26.8654C30.2551 26.1478 29.337 24.9207 29.191 24.7024C29.0345 24.484 28.4921 23.2985 28.2104 23.2049C27.9287 23.1009 27.8035 23.8704 27.887 24.2552C27.9705 24.6504 28.6485 25.7735 28.7111 25.9814C28.7633 26.1998 28.9511 26.6574 28.8467 26.7406C28.7424 26.8238 27.5114 26.3662 27.5114 26.3662L25.7902 25.1807C25.7902 25.1807 24.7678 23.7353 24.4549 23.7769C24.361 23.7873 24.2984 24.12 24.3088 24.2136L24.2984 24.224Z" fill="#FDB082"/>
<path d="M29.9959 28.9141C29.9959 28.9141 29.9542 28.9141 29.9333 28.8933C29.3492 28.5398 28.9423 28.0302 28.7232 27.3647C28.7024 27.3023 28.7337 27.2399 28.7963 27.2191C28.8589 27.1983 28.9214 27.2295 28.9423 27.2919C29.1509 27.9054 29.5265 28.3734 30.0585 28.6957C30.1107 28.7269 30.1316 28.7997 30.1003 28.8517C30.0794 28.8933 30.0377 28.9037 29.9959 28.9037V28.9141Z" fill="#E37A64"/>
<path d="M26.5108 26.5847C26.5108 26.5847 26.4587 26.5847 26.4378 26.5639L25.8223 26.0751C25.8223 26.0751 25.7597 25.9607 25.8015 25.9087C25.8432 25.8567 25.9162 25.8463 25.9684 25.8879L26.5839 26.3767C26.5839 26.3767 26.6464 26.4911 26.6047 26.5431C26.5839 26.5743 26.5421 26.5847 26.5108 26.5847Z" fill="#E37A64"/>
<path d="M26.5108 28.2278C26.5108 28.2278 26.4691 28.2278 26.4587 28.2174C25.8745 27.9054 25.0086 27.1983 24.487 26.4288C24.4453 26.3768 24.4662 26.304 24.5183 26.2624C24.5705 26.2312 24.6435 26.2416 24.6852 26.2936C25.186 27.0319 26.0101 27.7078 26.5734 27.999C26.6256 28.0302 26.6569 28.103 26.6256 28.155C26.6047 28.1966 26.563 28.2174 26.5213 28.2174L26.5108 28.2278Z" fill="#E37A64"/>
<path d="M26.5618 27.3438C26.5618 27.3438 26.5201 27.3438 26.5097 27.3334C25.8942 27.011 24.9136 26.1999 24.4128 25.4616C24.3711 25.4096 24.392 25.3368 24.4441 25.2952C24.4963 25.264 24.5693 25.2744 24.611 25.3264C25.0909 26.0335 26.0298 26.8134 26.6244 27.1254C26.6766 27.1566 26.7079 27.2294 26.6766 27.2814C26.6557 27.323 26.614 27.3438 26.5722 27.3438H26.5618Z" fill="#E37A64"/>
<path d="M27.2623 28.9349C27.2101 28.9349 27.1579 28.8933 27.1475 28.8309C27.1162 28.6229 27.0745 28.4045 27.0223 28.1861C26.9076 27.6246 26.7928 27.0423 26.845 26.5743C26.845 26.5119 26.9076 26.4703 26.9702 26.4703C27.0328 26.4703 27.0849 26.5327 27.0745 26.5951C27.0328 27.0319 27.1475 27.5934 27.2518 28.1341C27.2936 28.3629 27.3457 28.5813 27.377 28.7893C27.377 28.8517 27.3457 28.9141 27.2831 28.9245C27.2831 28.9245 27.2727 28.9245 27.2623 28.9245V28.9349Z" fill="#E37A64"/>
<path d="M32.2591 31.1082C32.2591 31.1082 30.3396 34.5711 29.8076 34.5399C29.4842 34.5191 28.6809 34.2071 28.0863 33.9679L27.8776 33.3544L27.4082 33.6768C27.4395 33.9055 29.7241 44.7621 30.1622 45.6876C30.6004 46.6235 32.9059 49.66 34.3037 49.296C35.7016 48.9321 37.6107 45.1676 37.6107 45.1676L32.2591 31.0978V31.1082Z" fill="#9E5C5C"/>
<path d="M74.4351 51.9893C74.4351 51.9893 72.4634 48.8488 72.7347 48.4329C72.9016 48.1833 73.5171 47.6738 73.9865 47.3202L74.5811 47.4346L74.529 46.9146C74.3203 46.8314 64.3682 43.6494 63.398 43.5662C62.4383 43.483 58.8914 43.9301 58.5576 45.2196C58.2238 46.5091 60.4458 49.7744 60.4458 49.7744L74.4455 51.9893H74.4351Z" fill="#9E5C5C"/>
<path d="M59.9028 30.0371C59.9028 30.0371 61.3528 31.129 61.6866 32.2625C61.791 32.6161 64.0338 45.8436 64.0338 45.8436C64.0338 45.8436 62.1978 49.66 60.7373 49.8264C59.2664 49.9928 56.502 41.9543 56.502 41.9543L59.9028 30.0371Z" fill="#9E5C5C"/>
<path d="M47.9593 46.8418C47.8759 46.8418 47.7924 46.8002 47.7507 46.717C45.4765 42.3287 43.2754 35.3925 42.4304 32.6056C42.4095 32.5328 42.4304 32.4496 42.4721 32.3872L43.7552 30.817L42.0027 30.4946C41.9401 30.4842 41.8775 30.4426 41.8462 30.3802C41.8149 30.3178 41.8044 30.245 41.8253 30.1827L42.8998 27.1046C42.9415 26.9798 43.0771 26.9174 43.2023 26.959C43.3275 27.0006 43.3901 27.1358 43.3484 27.2605L42.3678 30.0891L44.2351 30.4322C44.3186 30.4426 44.3811 30.505 44.4124 30.5778C44.4437 30.6506 44.4229 30.7442 44.3707 30.8066L42.9207 32.5848C43.7761 35.4237 45.9355 42.2039 48.1679 46.4987C48.2305 46.613 48.1784 46.7586 48.0636 46.8106C48.0323 46.8314 47.9906 46.8314 47.9593 46.8314V46.8418Z" fill="#7F4141"/>
<path d="M48.2621 46.4572C48.2621 46.4572 48.1891 46.4572 48.1578 46.4364C48.043 46.374 48.0013 46.2388 48.0535 46.1244C49.6182 43.1191 51.2665 38.6891 53.113 32.5953L51.6629 30.8171C51.6108 30.7547 51.6003 30.6611 51.6212 30.5883C51.6525 30.5051 51.7151 30.4531 51.7985 30.4427L53.6763 30.0996L52.7687 27.2502C52.727 27.1255 52.8 26.9903 52.9252 26.9591C53.0504 26.9175 53.186 26.9903 53.2173 27.1151L54.1979 30.2244C54.2188 30.2868 54.2083 30.3595 54.177 30.4115C54.1457 30.4739 54.0831 30.5051 54.0205 30.5259L52.268 30.8483L53.5511 32.4185C53.6033 32.4809 53.6137 32.5641 53.5928 32.6369C51.7255 38.8243 50.046 43.3167 48.4603 46.3636C48.4186 46.4468 48.3351 46.4884 48.2517 46.4884L48.2621 46.4572Z" fill="#7F4141"/>
<path d="M39.5306 42.7032C39.4262 42.7032 39.3324 42.6304 39.3011 42.5264L36.9539 32.5434C36.9226 32.4186 37.006 32.2938 37.1312 32.2626C37.2564 32.2314 37.3816 32.3146 37.4129 32.4394L39.7601 42.4224C39.7914 42.5472 39.7079 42.672 39.5827 42.7032C39.5619 42.7032 39.5514 42.7032 39.5306 42.7032Z" fill="#7F4141"/>
<path d="M57.0037 42.7032C57.0037 42.7032 56.9724 42.7032 56.9515 42.7032C56.8263 42.672 56.7429 42.5472 56.7742 42.4224L59.1214 32.4394C59.1527 32.3146 59.2779 32.2314 59.403 32.2626C59.5282 32.2938 59.6117 32.4186 59.5804 32.5434L57.2332 42.5264C57.2123 42.6304 57.108 42.7032 57.0037 42.7032Z" fill="#7F4141"/>
<path d="M62.1156 44.6894C62.0426 44.6894 61.9696 44.6582 61.9278 44.5854C61.8548 44.4814 61.8757 44.3358 61.9904 44.263L62.7937 43.7015L61.3749 43.4727C61.2498 43.4519 61.1559 43.3271 61.1767 43.2023C61.1976 43.0775 61.3228 42.9839 61.448 43.0047L63.4405 43.3271C63.5344 43.3375 63.6074 43.4103 63.6283 43.5039C63.6491 43.5975 63.6074 43.6911 63.5344 43.7535L62.2512 44.6478C62.2512 44.6478 62.1678 44.6894 62.1156 44.6894Z" fill="#7F4141"/>
<path d="M36.1294 43.9718C36.0251 43.9718 35.9312 43.899 35.8999 43.795L34.0639 36.8173C34.0326 36.6925 34.1056 36.5677 34.2308 36.5261C34.356 36.4949 34.4811 36.5677 34.5229 36.6925L36.3589 43.6702C36.3902 43.795 36.3172 43.9198 36.192 43.9614C36.1711 43.9614 36.1503 43.9614 36.1294 43.9614V43.9718Z" fill="#7F4141"/>
<path d="M48.2712 52.0519C48.146 52.0519 48.0312 51.9479 48.0312 51.8127V45.1157C48.0312 44.9909 48.1356 44.8766 48.2712 44.8766C48.4068 44.8766 48.5111 44.9805 48.5111 45.1157V51.8127C48.5111 51.9375 48.4068 52.0519 48.2712 52.0519Z" fill="#7F4141"/>
<path d="M76.929 40.3009L94.1105 41.1328L87.8722 51.563H70.2734L76.1362 40.7585C76.2927 40.4673 76.5952 40.2905 76.929 40.2905V40.3009Z" fill="#D4D4D3"/>
<path d="M77.377 40.301L94.016 40.2802C94.402 40.2802 94.6419 40.6962 94.4437 41.0185L88.3097 51.5735H70.7109L76.5737 40.769C76.7302 40.4778 77.0327 40.301 77.3665 40.301H77.377Z" fill="#D4D4D3"/>
<path d="M85.0029 46.01C84.8464 46.6444 84.1579 47.2475 83.4589 47.3619C82.7704 47.4763 82.3323 47.0499 82.4887 46.4156C82.6452 45.7813 83.3337 45.1781 84.0327 45.0637C84.7316 44.9493 85.1593 45.3757 85.0029 46.01Z" fill="white"/>
<path d="M70.7211 51.5734H60.2266L60.4978 50.9703H71.0445L70.7211 51.5734Z" fill="#D4D4D3"/>
<path d="M94.6835 51.563H18.916V105.825H94.6835V51.563Z" fill="#D8AD82"/>
<path d="M95.5591 51.563H18.0391V53.8715H95.5591V51.563Z" fill="#2C394A"/>
<path d="M94.6619 62.4092H18.957V63.6883H94.6619V62.4092Z" fill="white"/>
<path d="M35.4411 62.4092H33.8867V105.659H35.4411V62.4092Z" fill="white"/>
<path d="M50.5973 62.4092H49.043V105.659H50.5973V62.4092Z" fill="white"/>
<path d="M65.7555 62.4092H64.2012V105.659H65.7555V62.4092Z" fill="white"/>
<path d="M80.9137 62.4092H79.3594V105.659H80.9137V62.4092Z" fill="white"/>
</svg>
