<svg width="113" height="117" viewBox="0 0 113 117" fill="none" xmlns="http://www.w3.org/2000/svg">
<path d="M53.5691 18.3846C53.8922 17.6346 53.7537 14.6231 53.7537 14.6231L56.4883 14.5654L59.2229 14.6231C59.2229 14.6231 59.0844 17.6346 59.4075 18.3846C59.7305 19.1346 60.6074 19.9192 60.6074 19.9192C60.6074 19.9192 59.6036 24.846 56.4883 24.846C53.373 24.846 52.3691 19.9192 52.3691 19.9192C52.3691 19.9192 53.246 19.1346 53.5691 18.3846Z" fill="#FDB082"/>
<g style="mix-blend-mode:multiply">
<path d="M59.2 18.0038C58.5769 18.6153 57.8269 19.3192 57.5846 19.423C57.3885 19.5038 57.0423 19.5615 56.4885 19.5615C55.9346 19.5615 55.5885 19.5038 55.3923 19.423C55.1616 19.3192 54.4 18.6269 53.777 18.0038C53.8001 17.0577 53.7539 16.1577 53.7539 16.1577L56.4885 16.1L59.223 16.1577C59.223 16.1577 59.1884 17.0577 59.2 18.0038Z" fill="#EDB1A1"/>
</g>
<path d="M60.6415 7.98861C59.9492 6.8694 58.1954 6.10788 56.4762 6.10788C54.757 6.10788 53.0032 6.8694 52.3109 7.98861C51.5609 9.21167 52.3109 11.877 52.507 13.1577C52.6339 14.0231 52.7147 16.2385 52.957 16.6423C53.1993 17.0346 54.9993 18.7884 55.3685 18.9499C55.5647 19.0307 55.9108 19.0884 56.4762 19.0884C57.03 19.0884 57.3762 19.0307 57.5838 18.9499C57.9646 18.7884 59.753 17.0346 59.9953 16.6423C60.2376 16.25 60.3069 14.0347 60.4453 13.1577C60.6415 11.877 61.3915 9.20013 60.6415 7.98861Z" fill="#FDB082"/>
<path d="M53.2113 12.3039C53.2113 12.3039 51.8959 10.9309 51.5036 11.5655C51.1113 12.2001 51.9652 14.6231 52.2536 14.8193C52.669 15.1077 53.2459 14.577 53.2459 14.577L53.2113 12.3155V12.3039Z" fill="#FDB082"/>
<path d="M59.7534 12.3039C59.7534 12.3039 61.0687 10.9309 61.461 11.5655C61.8533 12.1885 60.9995 14.6231 60.711 14.8193C60.2957 15.1077 59.7188 14.577 59.7188 14.577L59.7534 12.3155V12.3039Z" fill="#FDB082"/>
<path d="M56.4873 5.64636C54.2259 5.64636 51.8605 6.88095 51.8144 8.49631C51.7913 9.40783 51.9874 10.7693 52.1605 11.9232L52.2759 12.8116L52.5874 12.9847V12.3039C52.8066 12.1193 53.049 11.577 53.1182 11.3001C53.1874 11.0232 53.0028 9.68475 53.6374 9.35014C54.3528 8.96938 55.6335 9.55783 56.4643 9.55783C57.295 9.55783 58.5873 8.96938 59.2911 9.35014C59.9373 9.69628 59.7527 11.0232 59.8104 11.3001C59.8796 11.5886 60.1219 12.1193 60.3296 12.3039V12.9847L60.6527 12.8116L60.768 11.9232C60.9411 10.7809 61.1373 9.40783 61.1142 8.49631C61.0796 6.88095 58.7027 5.64636 56.4412 5.64636L56.4873 5.64636Z" fill="#4F545B"/>
<path d="M51.4473 20.6922L56.5472 41.3572L61.5778 20.773L56.4664 23.046L51.4473 20.6922Z" fill="#F2E5DC"/>
<path d="M55.8061 23.8306C55.5868 26.8536 54.2715 45.084 54.2715 45.3725C54.2715 45.684 56.3599 49.2493 56.4637 49.2493C56.5676 49.2493 58.656 45.7302 58.656 45.3725C58.656 45.0494 57.3407 26.8536 57.1214 23.8306H55.7945H55.8061Z" fill="#E39D69"/>
<path d="M55.4253 22.596C55.0099 23.3575 54.7676 23.9575 54.7676 23.9921C54.7676 24.1883 56.3829 26.4959 56.4637 26.4959C56.5445 26.4959 58.1598 24.2229 58.1598 23.9921C58.1598 23.946 57.906 23.3806 57.5021 22.596H55.4253Z" fill="#E39D69"/>
<path d="M56.4645 22.5729C54.7684 21.6037 53.9838 20.7499 53.1877 18.8576C52.6454 19.4576 52.2184 19.9076 51.6992 20.4384C52.0569 22.4691 52.2069 23.9806 53.8915 25.1114C54.3646 24.1652 55.7261 23.3229 56.453 22.6306V22.5729H56.4645Z" fill="#F2E5DC"/>
<path d="M56.4648 22.5729C58.161 21.6037 58.9456 20.7499 59.7417 18.8576C60.1571 19.3653 60.6878 19.9422 61.2301 20.4384C60.8725 22.4691 60.734 24.0845 59.0379 25.2152C58.5648 24.2691 57.2033 23.3229 56.4648 22.6306V22.5729Z" fill="#F2E5DC"/>
<path d="M43.0703 110.91C43.0703 110.91 43.4972 109.479 43.8318 109.167C44.1664 108.856 45.7472 108.544 46.2087 108.175C46.5664 107.887 46.4626 106.664 46.7164 106.214C46.7856 106.098 46.8779 106.029 46.9933 106.029L49.9471 106.098C50.1548 106.098 50.2125 106.352 50.2586 106.618C50.3048 106.86 50.4086 107.229 50.4894 107.31C50.674 107.483 50.8817 107.587 51.1702 107.506C51.3548 107.46 51.874 106.848 51.9894 106.917C52.2894 107.067 52.2086 111.117 52.0932 111.048L43.0703 110.898V110.91Z" fill="#19222B"/>
<path d="M43.2542 111.44L51.9656 111.637C52.104 111.637 52.2194 111.533 52.2194 111.394V111.014C52.2194 110.875 52.1271 110.76 51.9886 110.76L43.2773 110.564C43.1388 110.564 43.0234 110.667 43.0234 110.806V111.187C43.0234 111.325 43.1157 111.44 43.2542 111.44Z" fill="#19222B"/>
<path d="M70.1855 110.91C70.1855 110.91 69.7585 109.479 69.4239 109.167C69.0893 108.856 67.5086 108.544 67.0471 108.175C66.6894 107.887 66.7932 106.664 66.5394 106.214C66.4701 106.098 66.3778 106.029 66.2625 106.029L63.3087 106.098C63.101 106.098 63.0433 106.352 62.9971 106.618C62.951 106.86 62.8471 107.229 62.7664 107.31C62.5818 107.483 62.3741 107.587 62.0856 107.506C61.901 107.46 61.3933 106.848 61.2664 106.917C60.9664 107.067 61.0472 111.117 61.1626 111.048L70.1855 110.898V110.91Z" fill="#19222B"/>
<path d="M69.9887 111.44L61.2773 111.637C61.1388 111.637 61.0234 111.533 61.0234 111.394V111.014C61.0234 110.875 61.1157 110.76 61.2542 110.76L69.9656 110.564C70.104 110.564 70.2194 110.667 70.2194 110.806V111.187C70.2194 111.325 70.1271 111.44 69.9887 111.44Z" fill="#19222B"/>
<path d="M46.2647 57.2338C46.2647 57.2338 46.1378 63.4299 46.2647 70.0297C46.357 74.9566 46.7147 80.1949 46.7147 82.8026C46.7147 88.8948 45.584 108.441 45.584 108.441L48.4109 108.856L52.1031 110.76C52.1031 110.76 53.6954 107.298 53.5223 106.306C53.3492 105.314 52.6915 103.168 52.7492 102.36C52.8069 101.552 54.5953 86.8525 54.5953 86.8525L56.7992 73.3989V55.5723L46.2763 57.2454L46.2647 57.2338Z" fill="#2C394A"/>
<path d="M66.9522 57.2338C66.9522 57.2338 67.0791 63.4299 66.9522 70.0297C66.8599 74.9566 66.5022 80.1949 66.5022 82.8026C66.5022 88.8948 67.3907 108.302 67.3907 108.302L61.1139 110.76C61.1139 110.76 59.9139 107.264 60.0869 106.271C60.26 105.279 60.2139 103.456 60.1562 102.637C60.0985 101.829 58.6101 86.8525 58.6101 86.8525L56.4062 73.3989V55.5723L66.9291 57.2454L66.9522 57.2338Z" fill="#2C394A"/>
<path d="M44.2575 58.8723C44.0267 59.8992 54.8727 62.6107 55.2765 61.6991C55.6803 60.7991 56.8803 54.257 56.8803 54.257V40.5842L51.6997 20.4384L49.1959 22.4114L42.9883 25.8152L46.669 46.861C46.669 46.861 44.4883 57.8454 44.2575 58.8723Z" fill="#2C394A"/>
<path d="M68.8221 58.8723C69.0528 59.8992 58.2069 62.6107 57.803 61.6991C57.3992 60.7992 56.1992 54.257 56.1992 54.257V40.5842L61.2299 20.4384L63.9183 22.4345L70.0913 25.8152L66.4106 46.861C66.4106 46.861 68.5913 57.8454 68.8221 58.8723Z" fill="#2C394A"/>
<path d="M53.9031 62.1722C51.5031 62.1722 47.0609 60.6146 46.4609 60.3953C46.3225 60.3492 46.2532 60.1992 46.2994 60.0607C46.3455 59.9223 46.4955 59.853 46.634 59.8992C49.3224 60.8569 53.9262 62.1376 54.8377 61.4684C56.1184 60.5338 56.2107 57.5915 56.2107 57.5569V39.9034C56.2107 39.765 56.3261 39.638 56.4761 39.638C56.6261 39.638 56.7415 39.7534 56.7415 39.9034V57.5685C56.7415 57.7069 56.6377 60.8107 55.1492 61.8953C54.8838 62.0914 54.4454 62.1722 53.9031 62.1722Z" fill="#19222B"/>
<path d="M59.1548 62.1722C58.6125 62.1722 58.1741 62.0914 57.9087 61.8953C56.4203 60.8107 56.3164 57.7069 56.3164 57.58C56.3164 57.4415 56.4318 57.3146 56.5702 57.3146C56.7202 57.3146 56.8356 57.43 56.8356 57.5684C56.8356 57.6031 56.9395 60.5453 58.2087 61.4799C59.1202 62.1491 63.724 60.8684 66.4124 59.9107C66.5508 59.8646 66.7008 59.9338 66.747 60.0722C66.7931 60.2107 66.7239 60.3607 66.5854 60.4069C65.9855 60.6261 61.5317 62.1837 59.1433 62.1837L59.1548 62.1722Z" fill="#19222B"/>
<path d="M42.9887 25.8268C42.9887 25.8268 42.0656 26.0114 41.9156 26.5075C41.7656 27.0037 41.4195 32.4382 41.4195 32.4382C41.4195 32.4382 38.7541 47.7033 39.4926 48.1994C40.231 48.6955 46.6809 46.0417 46.6809 46.0417L45.0309 32.1497L42.9887 25.8383V25.8268Z" fill="#2C394A"/>
<path d="M59.2455 49.1686L56.3379 50.1494L58.3917 53.3916L61.2763 52.0416L59.2455 49.1686Z" fill="#E88970"/>
<path d="M55.4031 49.9763C54.9877 49.9301 53.9031 52.2493 53.9031 52.2493C53.9031 52.2493 53.3147 53.6223 54.0647 54.0031C54.8031 54.3839 57.3184 55.1685 57.5146 55.1454C57.7569 55.1223 58.0569 54.9839 58.1377 54.7762C58.2184 54.5685 58.4492 54.6146 58.6223 54.5569C58.7953 54.4993 58.9684 54.3839 59.0146 54.2108C59.0607 54.0377 59.3492 54.0608 59.4761 54.0377C59.5915 54.0146 59.7299 53.957 59.8222 53.83C59.9376 53.68 59.9722 53.4147 60.0415 53.2993C60.1107 53.1839 60.4107 53.057 60.4915 52.8839C60.5376 52.7685 60.5145 52.307 60.4799 52.2262C60.3876 52.0301 55.83 50.034 55.4146 49.9878L55.4031 49.9763Z" fill="#FDB082"/>
<path d="M54.9548 51.1647C55.2317 50.9109 57.2509 52.0647 57.2509 52.0647C57.2509 52.0647 58.3932 52.7801 58.0471 53.4493C57.7009 54.1185 56.0971 56.0108 55.9356 56.1031C55.7394 56.2069 55.601 56.2531 55.4394 56.1492C55.2779 56.0454 55.151 55.9069 54.9894 55.8723C54.8279 55.8377 54.6087 55.8839 54.4817 55.78C54.3548 55.6762 54.2279 55.5377 54.1125 55.5146C53.9971 55.4916 53.801 55.5608 53.6741 55.48C53.5241 55.3877 53.4433 55.2146 53.3279 55.1685C53.2125 55.1223 52.901 55.1454 52.751 55.0531C52.6587 54.9954 52.4279 53.7031 52.4164 53.6224C52.3818 53.4262 54.6779 51.4301 54.9664 51.1763L54.9548 51.1647Z" fill="#FDB082"/>
<path d="M56.5915 55.0993C56.5915 55.0993 56.5569 55.0993 56.5453 55.0993L53.0262 53.7262C52.9569 53.7031 52.9223 53.6224 52.9569 53.5531C52.9916 53.4839 53.0608 53.4493 53.13 53.4839L56.6492 54.857C56.7184 54.88 56.753 54.9608 56.7184 55.03C56.6953 55.0762 56.6492 55.1108 56.603 55.1108L56.5915 55.0993Z" fill="#E37A64"/>
<path d="M54.3649 49.5494L55.9111 50.0686L53.6842 53.5416L52.4727 53.057L54.3649 49.5494Z" fill="#FDB082"/>
<path d="M51.3086 53.1839L52.6586 53.5877L54.7355 49.3647L53.0739 48.5801L51.3086 53.1839Z" fill="#F2E5DC"/>
<path d="M62.3157 52.6531L60.9657 53.057L58.7734 48.6378L60.5503 48.0609L62.3157 52.6531Z" fill="#F2E5DC"/>
<path d="M54.7461 50.1724C54.7461 50.1724 55.323 49.8032 55.8076 49.7455C56.2922 49.6878 57.423 49.2609 57.5614 49.2263C57.6999 49.1917 58.6345 48.6725 58.6345 48.7648C58.6345 48.8571 58.8306 49.2609 58.6576 49.3994C58.4845 49.5378 56.1999 51.2801 56.1999 51.2801L54.7461 50.1724Z" fill="#FDB082"/>
<path d="M43.197 43.2033C43.347 43.2033 54.1583 48.6148 54.1583 48.6148L51.1584 54.5108C51.1584 54.5108 43.4509 50.8186 42.597 50.4724C42.1816 50.2994 39.4355 48.7878 39.4355 47.8071C39.4355 46.8263 43.1855 43.2149 43.1855 43.2149L43.197 43.2033Z" fill="#2C394A"/>
<path d="M55.8311 41.2649C55.7388 41.2649 55.658 41.2188 55.6003 41.138C55.1849 40.4111 54.7811 39.7073 54.3773 39.0265C52.7042 36.1766 51.1119 33.4881 50.062 29.4382C50.0389 29.3575 50.062 29.2767 50.1081 29.2075L51.9311 26.8652H49.1389C49.0697 26.8652 49.0004 26.8306 48.9543 26.7729C48.9081 26.7267 48.8735 26.6575 48.885 26.5883L49.0235 22.6422C49.0235 22.5614 49.0697 22.4922 49.1274 22.446L51.1581 20.9345C51.2735 20.8538 51.435 20.8768 51.5273 20.9922C51.6081 21.1076 51.585 21.2691 51.4696 21.3614L49.5427 22.7922L49.4158 26.346H52.4734C52.5773 26.346 52.6581 26.4152 52.7042 26.5075C52.7504 26.5998 52.7388 26.7037 52.6696 26.7844L50.5927 29.4498C51.6312 33.3612 53.1888 36.0035 54.8272 38.7842C55.2311 39.4765 55.6465 40.1688 56.0618 40.9072C56.1311 41.0341 56.0849 41.1957 55.958 41.2649C55.9118 41.288 55.8772 41.2995 55.8311 41.2995V41.2649Z" fill="#19222B"/>
<path d="M56.962 42.6957C56.962 42.6957 56.8812 42.6957 56.8466 42.6726C56.7197 42.6149 56.662 42.4534 56.7197 42.3264C57.1581 41.4034 57.6427 40.4688 58.1273 39.5111C59.7081 36.3842 61.3465 33.1535 62.3503 29.4151L60.2735 26.7498C60.2158 26.669 60.2042 26.5652 60.2504 26.4729C60.2965 26.3806 60.3888 26.3229 60.4811 26.3229H63.5388L63.4119 22.7576L61.485 21.3268C61.3696 21.2461 61.3465 21.073 61.4273 20.9576C61.5196 20.8422 61.6811 20.8192 61.7965 20.8999L63.8272 22.4114C63.8849 22.4576 63.9311 22.5268 63.9311 22.6076L64.0695 26.5537C64.0695 26.6229 64.0465 26.6921 64.0003 26.7383C63.9542 26.7844 63.8849 26.819 63.8157 26.819H61.0234L62.8465 29.1728C62.8926 29.2421 62.9157 29.3228 62.8926 29.4036C61.8888 33.2458 60.2158 36.5458 58.6004 39.7303C58.1158 40.6765 57.6427 41.6111 57.2043 42.5341C57.1581 42.6264 57.0658 42.6841 56.9735 42.6841L56.962 42.6957Z" fill="#19222B"/>
<path d="M45.6426 43.4226C45.5041 43.4226 45.3772 43.3072 45.3772 43.1572V36.2458L42.758 27.0729C42.7234 26.9344 42.8041 26.796 42.9426 26.7498C43.0811 26.7152 43.2311 26.796 43.2657 26.9344L45.8849 36.1419C45.8849 36.1419 45.8849 36.1881 45.8849 36.2112V43.1572C45.8964 43.3072 45.781 43.4226 45.6426 43.4226Z" fill="#19222B"/>
<path d="M53.142 48.4763C53.142 48.4763 53.0497 48.4763 53.0151 48.4417L43.7153 43.0533C43.5883 42.9841 43.5537 42.8226 43.6229 42.6957C43.6922 42.5687 43.8537 42.5226 43.9806 42.6034L53.2804 47.9917C53.4074 48.0609 53.442 48.2225 53.3728 48.3494C53.3266 48.4302 53.2343 48.4763 53.142 48.4763Z" fill="#19222B"/>
<path d="M50.7994 53.7954C50.7994 53.7954 50.7417 53.7955 50.7071 53.7839L46.0918 52.1686C45.9533 52.1224 45.8841 51.9724 45.9303 51.8339C45.9764 51.6955 46.1264 51.6263 46.2649 51.6724L50.8802 53.2878C51.0186 53.3339 51.0878 53.4839 51.0417 53.6224C51.0071 53.7262 50.9032 53.7954 50.7994 53.7954Z" fill="#19222B"/>
<path d="M69.9657 25.8268C69.9657 25.8268 70.8887 26.0114 71.0387 26.5075C71.1887 27.0037 71.5349 32.4382 71.5349 32.4382C71.5349 32.4382 74.2002 47.7033 73.4618 48.1994C72.7233 48.6955 66.2734 46.0417 66.2734 46.0417L67.9234 32.1497L69.9657 25.8383V25.8268Z" fill="#2C394A"/>
<path d="M69.7573 43.2033C69.6073 43.2033 59.3613 47.8533 59.3613 47.8533L62.0844 53.3916C62.0844 53.3916 70.0111 50.7609 70.3573 50.4724C70.7034 50.1724 73.5188 48.7878 73.5188 47.8071C73.5188 46.8263 69.7688 43.2149 69.7688 43.2149L69.7573 43.2033Z" fill="#2C394A"/>
<path d="M67.3123 43.4226C67.1623 43.4226 67.0469 43.3072 67.0469 43.1572V36.2112C67.0469 36.2112 67.0584 36.165 67.07 36.1419L69.6891 26.9344C69.7237 26.796 69.8737 26.7152 70.0122 26.7498C70.1507 26.7844 70.2314 26.9344 70.1968 27.0729L67.5892 36.2458V43.1572C67.5776 43.2957 67.4623 43.4226 67.3123 43.4226Z" fill="#19222B"/>
<path d="M60.2964 47.4494C60.2041 47.4494 60.1118 47.3917 60.0656 47.2994C60.0079 47.1725 60.0656 47.011 60.181 46.9533L69.8962 42.211C70.0231 42.1534 70.1846 42.211 70.2423 42.3264C70.3 42.4534 70.2423 42.6149 70.1269 42.6726L60.4117 47.4148C60.4117 47.4148 60.331 47.4379 60.2964 47.4379V47.4494Z" fill="#19222B"/>
<path d="M50.7763 33.6843H46.7148V36.4304H50.7763V33.6843Z" fill="#F2E5DC"/>
<path d="M48.8957 32.6343H48.5957V33.9497H48.8957V32.6343Z" fill="#F2E5DC"/>
<path d="M49.4962 34.2497H47.0039V35.5189H49.4962V34.2497Z" fill="#E39D69"/>
<path d="M48.1111 107.794C47.9495 107.794 47.8457 107.656 47.8457 107.517C47.8457 107.356 48.988 91.7562 48.8495 86.6102C48.7111 81.4411 48.8495 64.6875 48.8495 64.5145C48.8495 64.376 48.9649 64.2606 49.1149 64.2606C49.2649 64.2606 49.3803 64.376 49.3803 64.526C49.3803 64.6991 49.2418 81.4411 49.3803 86.5987C49.5187 91.7678 48.3765 107.402 48.3649 107.564C48.3649 107.702 48.238 107.806 48.0995 107.806L48.1111 107.794Z" fill="#19222B"/>
<path d="M64.3699 107.621C64.2315 107.621 64.1161 107.506 64.1046 107.367C64.1046 107.194 63.493 90.0255 63.1007 86.0564C62.6969 82.0526 63.0777 65.0568 63.1007 64.3414C63.1007 64.2029 63.193 64.076 63.3661 64.0876C63.5161 64.0876 63.62 64.2145 63.62 64.3529C63.62 64.526 63.2161 82.0411 63.62 85.9987C64.0238 89.9909 64.6238 107.171 64.6353 107.344C64.6353 107.483 64.5315 107.61 64.3815 107.61L64.3699 107.621Z" fill="#19222B"/>
<path d="M56.4646 73.3297C56.3146 73.3297 56.1992 73.2143 56.1992 73.0643L56.2223 61.0184C56.2223 60.8799 56.3377 60.753 56.4877 60.753C56.6377 60.753 56.7531 60.8684 56.7531 61.0184L56.73 73.0643C56.73 73.2028 56.6146 73.3297 56.4646 73.3297Z" fill="#19222B"/>
<path d="M56.6955 67.3759C56.6032 67.3759 56.5224 67.3298 56.4647 67.249C56.3955 67.1221 56.4301 66.9606 56.557 66.8913L57.5032 66.3375L57.6532 63.1876C57.6532 63.0491 57.7916 62.9453 57.9301 62.9337C58.0686 62.9337 58.1839 63.0606 58.1839 63.2106L58.0339 66.499C58.0339 66.5913 57.9763 66.6721 57.907 66.7067L56.834 67.3298C56.834 67.3298 56.7532 67.3644 56.707 67.3644L56.6955 67.3759Z" fill="#19222B"/>
<path d="M53.4539 25.4806C53.3731 25.4806 53.2923 25.446 53.2462 25.3768C53.1539 25.2614 53.1885 25.0998 53.3039 25.0075L56.4077 22.6768C56.523 22.596 56.6846 22.6191 56.7769 22.7345C56.8692 22.8499 56.8346 23.0114 56.7192 23.1037L53.6154 25.4345C53.6154 25.4345 53.5116 25.4921 53.4539 25.4921V25.4806Z" fill="#C7A793"/>
<path d="M59.5355 25.5037C59.5355 25.5037 59.4201 25.4806 59.3739 25.446L56.3971 23.0922C56.2817 22.9999 56.2701 22.8383 56.3509 22.723C56.4317 22.6076 56.6047 22.596 56.7201 22.6768L59.697 25.0306C59.8124 25.1229 59.8239 25.2844 59.7431 25.3998C59.697 25.4691 59.6162 25.5037 59.5355 25.5037Z" fill="#C7A793"/>
</svg>
