<svg width="24" height="19" viewBox="0 0 24 19" fill="none" xmlns="http://www.w3.org/2000/svg">
<path d="M2.67562 18.4328C1.98221 18.4328 1.39157 18.1887 0.903691 17.7006C0.415814 17.2126 0.171875 16.6216 0.171875 15.9278V3.06219C0.171875 2.36838 0.415814 1.77905 0.903691 1.29419C1.39157 0.809325 1.98221 0.566895 2.67562 0.566895H21.3258C22.0192 0.566895 22.6098 0.810935 23.0977 1.29901C23.5856 1.78709 23.8295 2.37803 23.8295 3.07184V15.9375C23.8295 16.6313 23.5856 17.2206 23.0977 17.7055C22.6098 18.1903 22.0192 18.4328 21.3258 18.4328H2.67562ZM12.0007 11.2579L2.67562 5.85824V15.929H21.3258V5.85824L12.0007 11.2579ZM12.0007 8.47027L21.3258 3.07064H2.67562L12.0007 8.47027ZM2.67562 5.85824V3.07064V15.929V5.85824Z" fill="#C18E24"/>
</svg>
