<svg width="67" height="124" viewBox="0 0 67 124" fill="none" xmlns="http://www.w3.org/2000/svg">
<path d="M55.4129 35.253C54.858 35.0288 53.8214 37.775 53.69 38.7558C53.5586 39.7505 54.4492 42.3286 54.9456 42.4687C55.4421 42.6088 56.7123 35.7854 55.4129 35.239V35.253Z" fill="url(#paint0_linear_3970_8471)"/>
<path d="M55.209 35.3089C55.209 35.3089 49.1937 35.5191 45.091 35.7573C41.368 35.9675 36.8565 35.5751 36.8565 35.5751C36.8565 35.5751 34.0824 32.1985 32.7392 28.92C30.7536 24.0862 27.8189 19.8549 26.6947 19.7568C25.5705 19.6727 33.0458 44.8784 33.8926 45.0325C34.7394 45.1866 54.479 42.3004 54.479 42.3004C54.479 42.3004 54.2746 40.6611 54.3622 38.8537C54.4498 37.0603 55.1944 35.3229 55.1944 35.3229L55.209 35.3089Z" fill="#714753"/>
<path d="M54.6833 36.5418C54.9023 36.1355 58.4794 35.7012 59.4138 35.7152C60.3482 35.7292 61.268 35.6872 61.5454 35.6311C62.1586 35.519 63.3704 35.0427 64.1297 35.1127C65.3269 35.2248 66.1445 36.1495 66.2029 36.4718C66.3635 37.2003 65.5459 37.3124 63.7354 38.2372C62.363 38.9377 59.9978 39.7223 59.6766 39.7363C59.3554 39.7644 53.9679 40.4649 53.9679 40.4649L54.6687 36.5418H54.6833Z" fill="url(#paint1_linear_3970_8471)"/>
<path d="M53.938 37.0465C54.2738 37.2707 56.3324 37.8451 58.0698 35.9677C58.4933 35.5193 59.1795 35.5754 59.7927 35.155C60.1723 34.8888 60.7855 34.0902 60.5519 33.6839C60.3183 33.2776 59.7635 34.0062 59.0043 34.0902C58.245 34.1603 56.566 34.6787 56.0842 34.9449C55.0184 35.5474 53.5876 36.8223 53.9234 37.0465H53.938Z" fill="url(#paint2_linear_3970_8471)"/>
<path d="M55.4139 35.2535C55.5745 35.0153 46.5515 35.2956 46.4493 35.4917C46.3471 35.6879 45.6901 37.9156 45.8507 41.1802C45.9237 42.6093 46.4201 43.52 46.5953 43.604C46.7705 43.6881 54.9759 42.6933 54.9321 42.4832C54.8883 42.273 54.5963 38.9384 54.6693 38.0837C54.7569 37.2291 55.0051 35.856 55.3993 35.2535H55.4139Z" fill="url(#paint3_linear_3970_8471)"/>
<path d="M46.6993 41.2077C46.5387 37.8591 47.1957 35.5753 47.3125 35.3792C46.7869 35.4212 46.4657 35.4632 46.4365 35.5052C46.3343 35.7014 45.6773 37.9291 45.8379 41.1937C45.9109 42.6228 46.4073 43.5335 46.5825 43.6176C46.6117 43.6176 46.8891 43.6176 47.3125 43.5756C47.0935 43.2673 46.7431 42.4407 46.6847 41.2217L46.6993 41.2077Z" fill="url(#paint4_linear_3970_8471)"/>
<path d="M32.2422 71.8495C32.2422 71.8495 32.2422 78.4206 30.096 86.603C27.9643 94.7854 21.4672 117.343 21.4672 117.343L14.9701 117.483L16.5761 74.3574L32.2422 71.8354V71.8495Z" fill="url(#paint5_linear_3970_8471)"/>
<path d="M29.5254 67.1977C29.4378 67.4359 17.2028 119.543 17.2028 119.543H9.66905C9.66905 119.543 9.34784 103.864 9.66905 95.6819C9.99025 87.4995 10.3699 81.5589 10.2823 74.3153C10.1947 67.0716 29.5254 67.1837 29.5254 67.1837V67.1977Z" fill="url(#paint6_linear_3970_8471)"/>
<path d="M25.1322 19.4484C25.1322 19.4484 32.9726 41.6978 29.7021 42.9167C26.4171 44.1357 7.11552 22.727 7.11552 22.727C7.11552 22.727 8.19594 21.564 9.02815 21.3259C10.0064 21.0456 13.3936 19.9528 13.3936 19.9528C17.0291 19.3083 21.7012 18.7478 25.1322 19.4484Z" fill="url(#paint7_linear_3970_8471)"/>
<path d="M14.7812 74.8892L11.394 119.556L10.4888 119.528L11.394 80.6477L14.7812 74.8892Z" fill="#3B3B3B"/>
<path d="M23.4397 23.0496L29.2944 38.2374L29.4258 43.6036L25.6005 39.1621L21.7314 23.3158L23.4397 23.0496Z" fill="#C1272D"/>
<path d="M25.1316 19.4481L26.6938 19.7423C26.6938 19.7423 34.7678 31.4415 35.2788 48.6889C35.6438 61.0185 34.1984 88.7462 34.213 89.0124C34.213 89.2225 29.7453 90.4275 24.0512 90.9319C24.8396 73.6284 28.8693 58.7908 29.2051 42.3279C29.2781 38.9513 25.117 19.4341 25.117 19.4341L25.1316 19.4481Z" fill="#714753"/>
<path d="M5.42133 89.8256C5.42133 89.8256 4.99792 69.5238 5.90314 43.2393C6.25354 33.0253 5.15853 24.2825 7.10036 22.307C8.60418 20.7798 14.0063 19.8411 14.0063 19.8411L20.007 25.5996L29.1905 42.3426C31.9792 58.7214 30.4462 76.0669 28.8985 90.9465C27.3217 91.0866 20.7662 91.1847 19.0726 91.1847C11.276 91.1847 5.39213 89.8396 5.39213 89.8396L5.42133 89.8256Z" fill="#965F6F"/>
<path d="M24.2559 19.3365L21.9344 21.7183L15.3351 19.5606C15.3351 19.5606 15.6125 19.2384 15.6271 18.3557C15.6709 16.6183 15.7731 12.2329 15.7731 12.2329L21.5548 14.2505L23.7449 18.2856L24.2559 19.3225V19.3365Z" fill="url(#paint8_linear_3970_8471)"/>
<path d="M22.2116 20.2192C22.0656 20.3733 21.9488 21.7184 21.9488 21.7184L23.3066 20.7376C23.3066 20.7376 22.416 19.995 22.2116 20.2192Z" fill="url(#paint9_linear_3970_8471)"/>
<path d="M21.6708 20.3166C21.846 20.4427 21.9336 21.7177 21.9336 21.7177L20.5466 21.4515C20.5466 21.4515 21.4226 20.1345 21.6708 20.3166Z" fill="url(#paint10_linear_3970_8471)"/>
<path d="M23.3229 20.6398C23.5127 20.8079 23.6003 22.8395 23.4397 23.0357C23.2937 23.2458 21.9504 23.6521 21.6 23.498C21.2496 23.3579 20.0816 21.6626 20.1546 21.4384C20.2276 21.2002 23.0455 20.4016 23.3229 20.6398Z" fill="#C1272D"/>
<path d="M15.5687 17.9072C15.5687 17.9072 14.9555 19.0982 14.6489 19.6166C14.6489 19.6306 15.1161 20.8075 16.8535 21.5921C18.4011 22.2926 20.5328 23.7638 20.5474 23.7778C20.5474 23.7778 20.9562 21.3119 21.1606 20.9616C21.438 20.4992 21.7008 20.4292 21.6716 20.3171C21.6278 20.219 19.8612 20.177 18.2551 19.6166C16.3571 18.944 15.5687 17.9072 15.5687 17.9072Z" fill="url(#paint11_linear_3970_8471)"/>
<path d="M13.7747 20.8351C13.5557 21.1013 9.07342 23.4271 8.62081 23.287C8.1682 23.1469 6.97098 22.7266 6.97098 22.4884C6.97098 21.5917 12.7819 19.8403 13.1031 20.0225C13.4243 20.2046 13.9061 20.667 13.7747 20.8351Z" fill="url(#paint12_linear_3970_8471)"/>
<path d="M25.6428 19.5472C25.6428 19.5472 26.5626 19.6593 26.84 19.7434C27.1174 19.8274 27.351 20.4579 27.1758 20.514C27.0006 20.57 25.8326 20.598 25.8326 20.598L25.6282 19.5332L25.6428 19.5472Z" fill="url(#paint13_linear_3970_8471)"/>
<path d="M23.7442 18.2854C23.7442 18.2854 23.496 19.084 23.058 19.4903C22.6638 19.8686 22.1673 20.1489 22.1965 20.2049C22.2257 20.2609 22.5908 20.4431 22.9412 20.8214C23.1894 21.1016 23.9486 22.3626 23.9486 22.3626C23.9486 22.3626 24.6202 20.0368 24.5472 19.4483C24.518 19.1401 23.7296 18.2854 23.7296 18.2854H23.7442Z" fill="url(#paint14_linear_3970_8471)"/>
<path d="M15.1597 18.7053C15.1597 18.7053 16.2255 21.4935 18.9266 24.1135C21.613 26.7336 29.2344 42.3417 29.2344 42.3417L14.6633 25.5006L13.1011 20.0364L15.1597 18.7053Z" fill="#714753"/>
<path d="M24.4193 19.1262C24.4193 19.1262 25.1639 21.0877 25.5727 23.3996C26.0983 26.3418 29.2228 42.3563 29.2228 42.3563C29.2228 42.3563 29.6608 28.6536 28.4344 24.2962C28.0694 22.9792 25.8209 19.5886 25.6603 19.5606C25.4997 19.5325 24.4193 19.1402 24.4193 19.1402V19.1262Z" fill="#714753"/>
<path style="mix-blend-mode:multiply" d="M5.91893 43.2532C6.24014 33.8519 5.34953 25.6975 6.72195 22.9233L8.91199 23.6519C8.91199 23.6519 16.6063 26.9024 17.2633 44.6263C17.4677 50.2727 17.6137 81.8673 17.1173 91.1425C10.3282 90.9464 5.43713 89.8395 5.43713 89.8395C5.43713 89.8395 5.01372 69.5377 5.91893 43.2532Z" fill="url(#paint15_linear_3970_8471)"/>
<path style="mix-blend-mode:multiply" d="M21.9329 91.1702L23.7872 57.2498L25.875 91.1422L21.9329 91.1702Z" fill="url(#paint16_linear_3970_8471)"/>
<path d="M3.05888 71.7093C3.11728 72.0175 5.51173 73.0964 6.43154 73.1244C6.81115 73.1384 9.3954 72.4799 9.3808 72.0175C9.3516 70.6725 4.47511 70.4203 4.59191 70.6865C4.70871 70.9527 4.31451 71.5411 4.1393 71.387C3.7743 71.0367 2.89828 70.9527 3.05888 71.7093Z" fill="url(#paint17_linear_3970_8471)"/>
<path d="M7.15816 59.4214C7.15816 59.4214 7.66917 63.3725 7.94658 64.2552C8.22398 65.1238 9.88841 71.5829 9.3044 72.1573C8.92479 72.5216 4.89512 71.4988 4.64692 70.8543C4.16511 69.6214 4.54472 66.595 4.69072 66.1887C4.82212 65.7824 5.42073 64.9277 5.11413 64.017C4.80752 63.1063 3.6395 60.178 3.6395 60.178L7.15816 59.4354V59.4214Z" fill="url(#paint18_linear_3970_8471)"/>
<path d="M7.4516 22.5028C6.31278 22.3767 4.60455 23.8619 3.90374 26.0196C3.20293 28.1772 -0.0967297 42.8467 0.0638731 45.2285C0.224476 47.5403 0.414278 48.8714 0.604081 50.3705C1.02749 53.7332 1.5239 60.7807 2.60431 61.7754C3.30513 62.4199 4.79435 66.315 4.79435 66.315L9.70004 66.9595C9.70004 66.9595 9.53944 55.8488 9.34963 53.565C8.88243 47.8065 10.138 44.7241 9.51024 43.7294C9.21823 43.281 8.85323 43.1269 9.01383 42.6926C9.17443 42.2582 9.70004 41.7398 9.72924 41.2074C9.75844 40.675 9.43724 39.0777 9.74384 38.0129C10.9411 33.8657 11.7441 30.1528 11.5543 27.4207C11.4229 25.5012 10.1088 22.8111 7.437 22.5168L7.4516 22.5028Z" fill="#965F6F"/>
<path d="M10.2832 66.3712C10.254 63.9473 9.9766 59.2817 9.83059 59.2116C9.62619 59.1136 7.29015 59.0155 3.88829 59.2116C2.39906 59.2957 1.45005 59.3097 1.37705 59.4778C1.31865 59.6039 1.91725 63.8353 2.32606 66.091C2.36986 66.3432 2.42826 66.8056 2.96847 66.9457C4.20949 67.2819 6.61854 67.0998 7.24635 67.1418C8.13696 67.2119 10.2832 67.2539 10.2686 66.3572L10.2832 66.3712Z" fill="url(#paint19_linear_3970_8471)"/>
<path d="M3.87459 60.0247C7.36405 59.8285 9.74389 59.9406 9.96289 60.0247C9.91909 59.5203 9.86069 59.2121 9.83149 59.184C9.62708 59.086 7.29104 58.9879 3.88919 59.184C2.39996 59.2681 1.45095 59.2821 1.37795 59.4503C1.37795 59.4783 1.37794 59.7445 1.43634 60.1508C1.74295 59.9406 2.61897 60.0807 3.87459 60.0107V60.0247Z" fill="url(#paint20_linear_3970_8471)"/>
<path d="M19.4531 24.7166C22.5046 28.5556 29.2207 42.3284 29.2207 42.3284L14.7519 25.5993L18.1683 26.3559L19.4531 24.7026V24.7166Z" fill="url(#paint21_linear_3970_8471)"/>
<path d="M25.4981 23.0353L27.6444 25.0528C27.6444 25.0528 27.951 24.5765 28.3306 24.002C28.3744 24.1001 28.4036 24.1841 28.4182 24.2682C29.6592 28.6256 29.2066 42.3283 29.2066 42.3283C29.2066 42.3283 26.0821 26.3138 25.5565 23.3715C25.5419 23.2594 25.5127 23.1333 25.4981 23.0212V23.0353Z" fill="url(#paint22_linear_3970_8471)"/>
<path d="M16.0367 26.3704L28.5783 41.0398C28.9871 41.8525 29.2207 42.3428 29.2207 42.3428L14.7519 25.6138L18.1683 26.3704L18.3727 26.8047L16.0367 26.3704Z" fill="url(#paint23_linear_3970_8471)"/>
<path d="M28.4338 24.2827C29.6748 28.6401 29.2222 42.3428 29.2222 42.3428C29.2222 42.3428 29.1784 42.0766 29.0762 41.6282C29.1054 40.4794 29.2076 35.3373 29.0762 32.0868C28.9156 28.4159 28.2878 24.4649 28.2878 24.4649L27.6454 25.3756V25.0813C27.6454 25.0813 27.952 24.605 28.3316 24.0305C28.3754 24.1286 28.4046 24.2127 28.4192 24.2967L28.4338 24.2827Z" fill="url(#paint24_linear_3970_8471)"/>
<path d="M28.4772 44.7663C28.5064 45.0185 28.6816 45.2147 28.8714 45.1867C29.0466 45.1586 29.1634 44.9345 29.1342 44.6823C29.105 44.4301 28.9298 44.2339 28.74 44.2619C28.5648 44.29 28.448 44.5141 28.4772 44.7663Z" fill="url(#paint25_linear_3970_8471)"/>
<path d="M29.1022 50.8049C29.1314 51.0571 29.3066 51.2533 29.4964 51.2252C29.6716 51.1972 29.7884 50.973 29.7592 50.7208C29.73 50.4687 29.5548 50.2725 29.365 50.3005C29.1898 50.3285 29.073 50.5527 29.1022 50.8049Z" fill="url(#paint26_linear_3970_8471)"/>
<path d="M29.5275 57.5018C29.5275 57.768 29.6881 57.9641 29.8779 57.9641C30.0531 57.9641 30.1991 57.7399 30.1845 57.4877C30.1845 57.2215 30.0239 57.0254 29.8341 57.0254C29.6443 57.0254 29.5129 57.2496 29.5275 57.5018Z" fill="url(#paint27_linear_3970_8471)"/>
<path d="M29.5275 64.1995C29.5275 64.4657 29.6881 64.6619 29.8779 64.6619C30.0531 64.6619 30.1991 64.4377 30.1845 64.1855C30.1845 63.9193 30.0239 63.7231 29.8341 63.7231C29.6443 63.7231 29.5129 63.9473 29.5275 64.1995Z" fill="url(#paint28_linear_3970_8471)"/>
<path d="M13.931 9.87894C14.0332 12.0506 15.0115 13.774 15.7123 15.5814C16.4423 17.4448 19.0265 18.972 20.3551 18.916C21.7714 18.8459 24.341 17.0525 24.7936 14.8808C25.1586 13.1295 25.9762 11.3501 25.874 9.34652C25.6404 4.63885 23.5526 2.38309 19.8149 2.55123C15.8729 2.73337 13.6828 5.17127 13.9164 9.87894H13.931Z" fill="url(#paint29_linear_3970_8471)"/>
<path d="M14.6512 11.9951C14.6512 11.9951 14.5052 10.8322 14.0672 10.7621C13.6438 10.692 13.4832 11.6028 13.7752 12.4154C14.0088 13.0739 14.9286 14.447 15.206 14.2508C15.3082 14.1668 14.6512 11.9951 14.6512 11.9951Z" fill="url(#paint30_linear_3970_8471)"/>
<path d="M25.3654 11.518C25.3654 11.518 25.4092 10.3411 25.818 10.229C26.2414 10.1169 26.4751 11.0136 26.2706 11.8543C26.11 12.5268 25.3216 13.9839 25.0296 13.8018C24.9128 13.7317 25.3654 11.518 25.3654 11.518Z" fill="url(#paint31_linear_3970_8471)"/>
<path d="M14.9286 12.1358C15.3082 12.29 14.0818 7.42816 16.1404 6.29328C17.5567 5.52268 18.8415 6.20921 20.7541 6.08311C22.3163 5.98504 23.1048 5.2985 24.5648 5.99905C26.638 6.99382 24.9882 12.0658 25.3386 12.0237C25.7036 11.9677 25.8496 10.3564 25.8496 10.3705C25.8496 10.3705 26.565 8.94134 26.3168 6.46141C25.9372 2.66445 23.499 1.23533 20.2869 1.29138C17.0895 1.36143 14.6366 2.62241 14.038 5.2985C13.4394 7.97459 13.8774 10.7067 14.0234 10.7067C14.2716 10.7067 14.5928 11.9817 14.9286 12.1218V12.1358Z" fill="url(#paint32_linear_3970_8471)"/>
<path d="M29.2051 2.34105C29.8329 2.91549 26.3727 5.98388 26.3727 5.98388V8.0575C26.3727 8.0575 26.3727 8.0575 26.358 8.0575C26.358 8.07151 26.3727 8.08552 26.3727 8.09953C26.3727 8.53387 23.5694 8.88414 20.1237 8.88414C16.6781 8.88414 13.8164 8.53387 13.8164 8.09953V5.98388C13.8164 5.98388 10.473 2.94352 11.1008 2.36907C13.32 0.337487 27.0005 0.309465 29.2197 2.34105H29.2051Z" fill="#965F6F"/>
<path d="M20.1241 6.76898C23.5698 6.76898 26.373 6.41871 26.373 5.98438V8.05799C26.373 8.05799 26.373 8.05799 26.3584 8.05799C26.3584 8.072 26.373 8.08601 26.373 8.10002C26.373 8.53436 23.5698 8.88463 20.1241 8.88463C16.6785 8.88463 13.8168 8.53436 13.8168 8.10002V5.98438C13.8168 6.41871 16.6785 6.76898 20.1241 6.76898Z" fill="url(#paint33_linear_3970_8471)"/>
<path d="M26.373 5.77417V5.83068C26.373 5.83068 26.373 5.80243 26.3585 5.77417H26.373Z" fill="#965F6F"/>
<path d="M25.8906 8.29565C25.8906 8.29565 23.978 10.8456 20.3863 10.8456C16.7947 10.8456 14.6338 8.29565 14.6338 8.29565H25.8906Z" fill="url(#paint34_linear_3970_8471)"/>
<path d="M20.1241 8.22587C23.5698 8.22587 26.373 7.8756 26.373 7.44126V8.05774C26.373 8.05774 26.373 8.05774 26.3584 8.05774C26.3584 8.07175 26.373 8.08576 26.373 8.09977C26.373 8.53411 23.5698 8.88438 20.1241 8.88438C16.6785 8.88438 13.8168 8.53411 13.8168 8.09977V7.42725C13.8168 7.86159 16.6785 8.21186 20.1241 8.21186V8.22587Z" fill="url(#paint35_linear_3970_8471)"/>
<path d="M30.2285 121.798C30.2285 121.98 15.7889 121.798 15.7889 121.798L15.1027 115.409L19.6287 115.577C19.6287 115.577 19.9353 117.23 21.1326 117.847C24.6658 119.668 30.2285 119.626 30.2285 121.784V121.798Z" fill="url(#paint36_linear_3970_8471)"/>
<path d="M16.1394 118.688C16.1394 118.688 16.1686 119.374 16.6066 120.117C17.2052 121.14 19.0741 121.826 19.2785 122.457C19.3661 122.709 19.2347 123.62 19.2347 123.62H8.91231C8.91231 123.62 8.6933 122.849 8.91231 122.401C9.13131 121.952 10.3577 120.341 10.4891 119.542C10.6205 118.744 10.7811 118.071 10.7811 118.071L16.1394 118.702V118.688Z" fill="url(#paint37_linear_3970_8471)"/>
<defs>
<linearGradient id="paint0_linear_3970_8471" x1="55.3691" y1="38.8258" x2="54.5818" y2="38.9322" gradientUnits="userSpaceOnUse">
<stop offset="0.28" stop-color="#2D333D"/>
<stop offset="0.62" stop-color="#1F2531"/>
<stop offset="0.98" stop-color="#161C29"/>
</linearGradient>
<linearGradient id="paint1_linear_3970_8471" x1="65.8273" y1="38.2089" x2="54.0986" y2="36.9889" gradientUnits="userSpaceOnUse">
<stop offset="0.26" stop-color="#FCD9BB"/>
<stop offset="0.5" stop-color="#F6D0B1"/>
<stop offset="0.89" stop-color="#E9BA97"/>
<stop offset="1" stop-color="#E5B490"/>
</linearGradient>
<linearGradient id="paint2_linear_3970_8471" x1="60.2154" y1="35.447" x2="53.872" y2="34.7872" gradientUnits="userSpaceOnUse">
<stop offset="0.26" stop-color="#FCD9BB"/>
<stop offset="0.5" stop-color="#F6D0B1"/>
<stop offset="0.89" stop-color="#E9BA97"/>
<stop offset="1" stop-color="#E5B490"/>
</linearGradient>
<linearGradient id="paint3_linear_3970_8471" x1="54.7033" y1="34.7081" x2="46.9079" y2="42.7836" gradientUnits="userSpaceOnUse">
<stop stop-color="#3A4049"/>
<stop offset="0.09" stop-color="#343A44"/>
<stop offset="0.28" stop-color="#2D333D"/>
<stop offset="0.62" stop-color="#1F2531"/>
<stop offset="0.98" stop-color="#161C29"/>
</linearGradient>
<linearGradient id="paint4_linear_3970_8471" x1="47.535" y1="39.3151" x2="45.5899" y2="39.1128" gradientUnits="userSpaceOnUse">
<stop stop-color="#F8E5CA"/>
<stop offset="0.06" stop-color="#F5D9B2"/>
<stop offset="0.17" stop-color="#F1C890"/>
<stop offset="0.28" stop-color="#EEBC78"/>
<stop offset="0.37" stop-color="#ECB56A"/>
<stop offset="0.45" stop-color="#ECB365"/>
<stop offset="1" stop-color="#DB9736"/>
</linearGradient>
<linearGradient id="paint5_linear_3970_8471" x1="22.3578" y1="86.9673" x2="17.6423" y2="117.18" gradientUnits="userSpaceOnUse">
<stop offset="0.02" stop-color="#0A101E"/>
<stop offset="0.39" stop-color="#131926"/>
<stop offset="1" stop-color="#2D333D"/>
</linearGradient>
<linearGradient id="paint6_linear_3970_8471" x1="19.0132" y1="83.8707" x2="16.794" y2="119.428" gradientUnits="userSpaceOnUse">
<stop offset="0.02" stop-color="#161C29"/>
<stop offset="0.38" stop-color="#1F2531"/>
<stop offset="0.72" stop-color="#2D333D"/>
<stop offset="0.91" stop-color="#343A44"/>
<stop offset="1" stop-color="#3A4049"/>
</linearGradient>
<linearGradient id="paint7_linear_3970_8471" x1="30.5051" y1="31.0354" x2="18.5183" y2="31.0354" gradientUnits="userSpaceOnUse">
<stop stop-color="#E9E6E1"/>
<stop offset="0.3" stop-color="#E5E2DC"/>
<stop offset="0.61" stop-color="#DBD7D0"/>
<stop offset="0.92" stop-color="#CAC6BB"/>
<stop offset="1" stop-color="#C6C1B5"/>
</linearGradient>
<linearGradient id="paint8_linear_3970_8471" x1="16.3485" y1="17.1933" x2="23.4229" y2="15.994" gradientUnits="userSpaceOnUse">
<stop stop-color="#F17954"/>
<stop offset="1" stop-color="#FF9A6A"/>
</linearGradient>
<linearGradient id="paint9_linear_3970_8471" x1="23.2483" y1="20.8556" x2="22.0743" y2="20.5662" gradientUnits="userSpaceOnUse">
<stop stop-color="#C3BEB1"/>
<stop offset="1" stop-color="#C3BEB1"/>
</linearGradient>
<linearGradient id="paint10_linear_3970_8471" x1="22.1559" y1="20.7799" x2="20.784" y2="20.4417" gradientUnits="userSpaceOnUse">
<stop stop-color="#C3BEB1"/>
<stop offset="1" stop-color="#C3BEB1"/>
</linearGradient>
<linearGradient id="paint11_linear_3970_8471" x1="21.4371" y1="21.2649" x2="14.6482" y2="19.5913" gradientUnits="userSpaceOnUse">
<stop stop-color="#F6F5F3"/>
<stop offset="0.1" stop-color="#F2F1EE"/>
<stop offset="0.65" stop-color="#E0DED7"/>
<stop offset="1" stop-color="#DAD7CF"/>
</linearGradient>
<linearGradient id="paint12_linear_3970_8471" x1="15.6435" y1="21.6617" x2="7.45279" y2="21.6617" gradientUnits="userSpaceOnUse">
<stop stop-color="#DB9736"/>
<stop offset="1" stop-color="#ECB365"/>
</linearGradient>
<linearGradient id="paint13_linear_3970_8471" x1="27.0152" y1="19.6453" x2="25.6644" y2="20.5936" gradientUnits="userSpaceOnUse">
<stop stop-color="#DB9736"/>
<stop offset="1" stop-color="#ECB365"/>
</linearGradient>
<linearGradient id="paint14_linear_3970_8471" x1="24.5169" y1="20.1501" x2="22.3388" y2="19.6131" gradientUnits="userSpaceOnUse">
<stop stop-color="#F6F5F3"/>
<stop offset="0.1" stop-color="#F2F1EE"/>
<stop offset="0.65" stop-color="#E0DED7"/>
<stop offset="1" stop-color="#DAD7CF"/>
</linearGradient>
<linearGradient id="paint15_linear_3970_8471" x1="12.8978" y1="24.3384" x2="10.5446" y2="90.0569" gradientUnits="userSpaceOnUse">
<stop stop-color="#E5C2AB"/>
<stop offset="0.24" stop-color="#EDD6C7"/>
<stop offset="0.55" stop-color="#F7ECE5"/>
<stop offset="0.81" stop-color="#FCFAF8"/>
<stop offset="1" stop-color="white"/>
</linearGradient>
<linearGradient id="paint16_linear_3970_8471" x1="25.2034" y1="57.8943" x2="24.0201" y2="90.8236" gradientUnits="userSpaceOnUse">
<stop stop-color="white"/>
<stop offset="1" stop-color="#F5F0F9"/>
</linearGradient>
<linearGradient id="paint17_linear_3970_8471" x1="8.69008" y1="72.3532" x2="2.34692" y2="72.0473" gradientUnits="userSpaceOnUse">
<stop stop-color="#FCD9BB"/>
<stop offset="0.16" stop-color="#F2C9A8"/>
<stop offset="0.35" stop-color="#EABD9A"/>
<stop offset="0.59" stop-color="#E6B692"/>
<stop offset="1" stop-color="#E5B490"/>
</linearGradient>
<linearGradient id="paint18_linear_3970_8471" x1="9.01084" y1="66.238" x2="2.69686" y2="65.9334" gradientUnits="userSpaceOnUse">
<stop offset="0.26" stop-color="#FCD9BB"/>
<stop offset="0.5" stop-color="#F6D0B1"/>
<stop offset="0.89" stop-color="#E9BA97"/>
<stop offset="1" stop-color="#E5B490"/>
</linearGradient>
<linearGradient id="paint19_linear_3970_8471" x1="5.2573" y1="67.6778" x2="6.48207" y2="52.76" gradientUnits="userSpaceOnUse">
<stop stop-color="#3A4049"/>
<stop offset="0.09" stop-color="#343A44"/>
<stop offset="0.28" stop-color="#2D333D"/>
<stop offset="0.62" stop-color="#1F2531"/>
<stop offset="0.98" stop-color="#161C29"/>
</linearGradient>
<linearGradient id="paint20_linear_3970_8471" x1="5.41668" y1="60.9695" x2="5.55315" y2="59.3074" gradientUnits="userSpaceOnUse">
<stop stop-color="#F8E5CA"/>
<stop offset="0.06" stop-color="#F5D9B2"/>
<stop offset="0.17" stop-color="#F1C890"/>
<stop offset="0.28" stop-color="#EEBC78"/>
<stop offset="0.37" stop-color="#ECB56A"/>
<stop offset="0.45" stop-color="#ECB365"/>
<stop offset="1" stop-color="#DB9736"/>
</linearGradient>
<linearGradient id="paint21_linear_3970_8471" x1="23.7018" y1="25.3752" x2="20.8838" y2="40.6761" gradientUnits="userSpaceOnUse">
<stop stop-color="#3A4049"/>
<stop offset="0.09" stop-color="#343A44"/>
<stop offset="0.28" stop-color="#2D333D"/>
<stop offset="0.62" stop-color="#1F2531"/>
<stop offset="0.98" stop-color="#161C29"/>
</linearGradient>
<linearGradient id="paint22_linear_3970_8471" x1="29.192" y1="23.5677" x2="25.8615" y2="41.5667" gradientUnits="userSpaceOnUse">
<stop stop-color="#3A4049"/>
<stop offset="0.09" stop-color="#343A44"/>
<stop offset="0.28" stop-color="#2D333D"/>
<stop offset="0.62" stop-color="#1F2531"/>
<stop offset="0.98" stop-color="#161C29"/>
</linearGradient>
<linearGradient id="paint23_linear_3970_8471" x1="23.366" y1="27.0849" x2="20.8581" y2="40.6858" gradientUnits="userSpaceOnUse">
<stop stop-color="#F8E5CA"/>
<stop offset="0.06" stop-color="#F5D9B2"/>
<stop offset="0.17" stop-color="#F1C890"/>
<stop offset="0.28" stop-color="#EEBC78"/>
<stop offset="0.37" stop-color="#ECB56A"/>
<stop offset="0.45" stop-color="#ECB365"/>
<stop offset="1" stop-color="#DB9736"/>
</linearGradient>
<linearGradient id="paint24_linear_3970_8471" x1="30.3318" y1="24.2267" x2="27.0959" y2="41.8037" gradientUnits="userSpaceOnUse">
<stop stop-color="#F8E5CA"/>
<stop offset="0.06" stop-color="#F5D9B2"/>
<stop offset="0.17" stop-color="#F1C890"/>
<stop offset="0.28" stop-color="#EEBC78"/>
<stop offset="0.37" stop-color="#ECB56A"/>
<stop offset="0.45" stop-color="#ECB365"/>
<stop offset="1" stop-color="#DB9736"/>
</linearGradient>
<linearGradient id="paint25_linear_3970_8471" x1="28.8804" y1="44.5305" x2="29.0649" y2="45.0196" gradientUnits="userSpaceOnUse">
<stop stop-color="#ECB365"/>
<stop offset="1" stop-color="#DB9736"/>
</linearGradient>
<linearGradient id="paint26_linear_3970_8471" x1="29.5058" y1="50.5698" x2="29.6766" y2="51.06" gradientUnits="userSpaceOnUse">
<stop stop-color="#ECB365"/>
<stop offset="1" stop-color="#DB9736"/>
</linearGradient>
<linearGradient id="paint27_linear_3970_8471" x1="29.7839" y1="57.366" x2="29.9076" y2="57.869" gradientUnits="userSpaceOnUse">
<stop stop-color="#ECB365"/>
<stop offset="1" stop-color="#DB9736"/>
</linearGradient>
<linearGradient id="paint28_linear_3970_8471" x1="29.7745" y1="64.0675" x2="29.9118" y2="64.5706" gradientUnits="userSpaceOnUse">
<stop stop-color="#ECB365"/>
<stop offset="1" stop-color="#DB9736"/>
</linearGradient>
<linearGradient id="paint29_linear_3970_8471" x1="13.8229" y1="11.062" x2="25.78" y2="10.4831" gradientUnits="userSpaceOnUse">
<stop stop-color="#FF9A67"/>
<stop offset="0.99" stop-color="#FFBD95"/>
</linearGradient>
<linearGradient id="paint30_linear_3970_8471" x1="15.8792" y1="13.2853" x2="14.3201" y2="12.4337" gradientUnits="userSpaceOnUse">
<stop stop-color="#FF9A67"/>
<stop offset="0.99" stop-color="#FFBD95"/>
</linearGradient>
<linearGradient id="paint31_linear_3970_8471" x1="23.9634" y1="12.9151" x2="25.43" y2="11.9232" gradientUnits="userSpaceOnUse">
<stop stop-color="#FFBD95"/>
<stop offset="1" stop-color="#FF9A67"/>
</linearGradient>
<linearGradient id="paint32_linear_3970_8471" x1="13.5199" y1="7.12153" x2="26.177" y2="6.50877" gradientUnits="userSpaceOnUse">
<stop stop-color="#7F705F"/>
<stop offset="0.08" stop-color="#837565"/>
<stop offset="0.39" stop-color="#94867A"/>
<stop offset="0.7" stop-color="#9E9186"/>
<stop offset="1" stop-color="#A2958B"/>
</linearGradient>
<linearGradient id="paint33_linear_3970_8471" x1="13.7876" y1="7.52557" x2="29.4965" y2="7.06917" gradientUnits="userSpaceOnUse">
<stop offset="0.02" stop-color="#161C29"/>
<stop offset="0.38" stop-color="#1F2531"/>
<stop offset="0.72" stop-color="#2D333D"/>
<stop offset="0.91" stop-color="#343A44"/>
<stop offset="1" stop-color="#3A4049"/>
</linearGradient>
<linearGradient id="paint34_linear_3970_8471" x1="14.6776" y1="9.65471" x2="28.6783" y2="9.24395" gradientUnits="userSpaceOnUse">
<stop offset="0.02" stop-color="#161C29"/>
<stop offset="0.38" stop-color="#1F2531"/>
<stop offset="0.72" stop-color="#2D333D"/>
<stop offset="0.91" stop-color="#343A44"/>
<stop offset="1" stop-color="#3A4049"/>
</linearGradient>
<linearGradient id="paint35_linear_3970_8471" x1="13.8022" y1="8.25389" x2="29.4673" y2="7.79749" gradientUnits="userSpaceOnUse">
<stop stop-color="#DB9736"/>
<stop offset="0.55" stop-color="#ECB365"/>
<stop offset="0.63" stop-color="#ECB56A"/>
<stop offset="0.72" stop-color="#EEBC78"/>
<stop offset="0.83" stop-color="#F1C890"/>
<stop offset="0.94" stop-color="#F5D9B2"/>
<stop offset="1" stop-color="#F8E5CA"/>
</linearGradient>
<linearGradient id="paint36_linear_3970_8471" x1="30.2285" y1="118.631" x2="15.0881" y2="118.631" gradientUnits="userSpaceOnUse">
<stop stop-color="#550500"/>
<stop offset="0.42" stop-color="#3C0200"/>
<stop offset="0.89" stop-color="#260000"/>
</linearGradient>
<linearGradient id="paint37_linear_3970_8471" x1="14.0662" y1="118.576" x2="14.0662" y2="123.592" gradientUnits="userSpaceOnUse">
<stop stop-color="#621507"/>
<stop offset="0.37" stop-color="#490D03"/>
<stop offset="0.78" stop-color="#330600"/>
<stop offset="0.93" stop-color="#621507"/>
<stop offset="0.95" stop-color="#4C0E03"/>
<stop offset="0.98" stop-color="#390800"/>
<stop offset="1" stop-color="#330600"/>
</linearGradient>
</defs>
</svg>
