<svg width="18" height="14" viewBox="0 0 18 14" fill="none" xmlns="http://www.w3.org/2000/svg">
<path d="M16.2539 1.50195C16.4249 1.33989 16.7128 1.34098 16.8828 1.50488C17.0393 1.65584 17.0388 1.89298 16.8799 2.04395L5.01758 13.2598L5.01562 13.2617C4.93838 13.3356 4.82595 13.3809 4.70508 13.3809H4.68945C4.57287 13.3809 4.46153 13.3331 4.38281 13.2549L4.38086 13.2539L1.11523 10.0391C0.959242 9.88579 0.96203 9.64852 1.12305 9.5L1.125 9.49902C1.29906 9.33711 1.58532 9.34187 1.75195 9.50684L1.75391 9.50781L4.36426 12.0771L4.70801 12.416L5.05859 12.084L16.2539 1.50195Z" fill="white" stroke="white"/>
</svg>
