<svg width="93" height="126" viewBox="0 0 93 126" fill="none" xmlns="http://www.w3.org/2000/svg">
<mask id="mask0_4023_22287" style="mask-type:alpha" maskUnits="userSpaceOnUse" x="0" y="0" width="93" height="126">
<rect y="0.880859" width="93" height="125" fill="#D9D9D9"/>
</mask>
<g mask="url(#mask0_4023_22287)">
<path d="M75.3106 32.0139C77.7841 32.0139 79.7892 30.0044 79.7892 27.5255C79.7892 25.0466 77.7841 23.0371 75.3106 23.0371C72.8372 23.0371 70.832 25.0466 70.832 27.5255C70.832 30.0044 72.8372 32.0139 75.3106 32.0139Z" fill="#BE7E25"/>
<path d="M67.3313 0.633C68.1735 0.652182 74.1067 0.959082 77.3029 6.19557C79.9442 10.5305 79.9059 16.9371 76.8627 19.9294C75.3124 21.4447 72.6138 21.5789 67.2165 21.8475C62.1254 22.0968 59.5799 22.2311 57.9913 21.0035C54.4506 18.2606 53.6276 10.9333 56.709 5.98457C60.1158 0.517913 66.6615 0.633 67.3313 0.633Z" fill="#BE7E25"/>
<path d="M84.0544 43.9445C82.1022 42.3332 74.5422 39.4944 73.1067 37.0776C71.8818 34.9868 71.4033 24.6289 71.0588 21.8477H63.4414C63.0969 24.6098 62.6184 34.9868 61.3935 37.0776C59.9771 39.4944 52.398 42.3332 50.4458 43.9445C49.0103 45.1145 46.6753 51.1374 45.5078 55.0888H89.0115C87.844 51.1566 85.4899 45.1337 84.0736 43.9445H84.0544Z" fill="#FFC7B8"/>
<g style="mix-blend-mode:multiply">
<path d="M72.0497 31.9184C71.1885 33.3378 69.6382 34.5654 67.2075 34.5654C64.7768 34.5654 63.3031 33.357 62.4609 31.9376C62.5758 31.2662 62.7289 30.6141 62.8629 29.9619H71.667C71.8009 30.6141 71.9349 31.2662 72.0497 31.9184Z" fill="#FFCCBE"/>
</g>
<path d="M67.0028 4.85254C52.8014 4.85254 58.0073 22.9788 58.9834 26.1054C59.883 29.0209 63.0984 33.3559 66.8497 33.3559C70.601 33.3559 74.1226 29.0209 75.0222 26.1054C75.9983 22.9788 81.185 4.85254 67.0028 4.85254Z" fill="#FFC7B8"/>
<path d="M56.6147 16.5325C57.6482 16.8202 61.4378 17.7601 65.438 15.6885C68.1557 14.2691 69.6869 12.14 70.3376 11.085C72.6343 13.7512 75.0076 15.9187 77.4957 16.3407C77.6488 11.085 75.4287 6.32808 71.6582 4.21814C68.883 2.64527 66.0696 2.97135 65.4762 3.04808C64.5767 3.16317 61.1316 3.73861 58.6435 6.9227C55.4664 11.0083 56.4807 15.9571 56.5956 16.5517L56.6147 16.5325Z" fill="#BE7E25"/>
<path d="M80.3656 41.1413L74.0114 37.938L62.0493 42.695L62.1067 37.0557L55.4079 40.3548L51.4844 67.3621L63.9632 67.0168L80.3656 41.1413Z" fill="#F2E5DC"/>
<path d="M62.0427 42.5238L62.5786 37.4791L62.081 34.8896L59.5355 37.9586L58.4062 42.1018L62.0427 42.5238Z" fill="#F2E5DC"/>
<path d="M51.7653 41.6426C51.7653 41.6426 48.2054 43.1195 47.6886 44.6732C47.1719 46.2269 45.679 52.0005 44.99 52.8636C44.301 53.7268 29.4297 74.3275 29.4297 74.3275C29.4297 74.3275 32.1858 83.2851 35.7839 81.5588C39.3821 79.8325 52.0907 64.2189 52.0907 64.2189L51.7462 41.6426H51.7653Z" fill="#F2E5DC"/>
<path d="M18.0078 56.5269C18.0078 56.5269 29.3383 83.304 33.8552 82.671C38.3721 82.038 40.8984 77.703 41.0516 76.9742C41.2047 76.2453 22.1419 53.4004 22.1419 53.4004L18.0078 56.5269Z" fill="#FFC7B8"/>
<path d="M53.9554 171.097H86.6836C86.6836 171.097 85.7458 161.699 85.7458 160.26C85.7458 158.821 88.3487 124.928 89.2866 114.167C90.2053 103.407 78.3006 92.5693 78.3006 92.5693L48.9791 92.8187C48.9791 92.8187 47.2183 110.657 47.9456 119.807C48.6729 128.956 52.7687 158.572 52.7687 158.572L53.9745 171.097H53.9554Z" fill="#2C394A"/>
<path d="M81.2823 81.3496C81.0909 79.7959 91.5218 45.1737 86.6604 43.2556C81.799 41.3375 77.6266 39.7838 77.6266 39.7838C77.6266 39.7838 75.6744 40.0907 73.3969 42.4116C71.5212 44.3106 56.5734 63.3768 55.4059 66.5033L56.5734 39.4961L51.7503 41.5485L50.7933 51.4268C50.7933 51.4268 46.5826 59.2528 46.0659 64.0097C45.5491 68.7667 50.3914 76.6694 50.1426 79.6425C49.3196 89.9812 45.5491 110.39 45.9702 110.774C46.6975 111.426 58.6596 110.965 62.009 110.812C62.1429 111.387 62.2003 111.694 62.2003 111.694C62.2003 111.694 79.3875 111.349 81.9139 111.004C84.4211 110.659 90.5648 107.033 90.5648 107.033C90.5648 107.033 81.4736 82.8841 81.2823 81.3112V81.3496Z" fill="#2C394A"/>
<path d="M79.2155 52.6532C80.0959 48.6635 81.4739 43.1009 83.6941 43.0242C85.9334 42.9474 90.7756 45.4794 91.6369 47.2057C92.4982 48.932 97.551 83.2856 96.3261 85.2421C95.1011 87.1986 88.0196 87.448 87.6751 86.9301C87.3306 86.4122 78.3542 56.4319 79.1963 52.6532H79.2155Z" fill="#F2E5DC"/>
<path d="M61.4922 75.5356L71.1767 104.384L90.2395 97.4981L81.1674 69.2441L61.4922 75.5356Z" fill="#6B7D64"/>
<path d="M68.8828 88.2531L94.3573 75.3633C94.3573 75.3633 98.1086 84.6854 95.5439 87.2557C92.9792 89.826 69.5144 93.6238 69.5144 93.6238L68.8828 88.2339V88.2531Z" fill="#FFC7B8"/>
<path d="M61.4748 112.211C56.8239 112.211 56.2115 108.931 56.1349 106.457C55.9052 97.2496 57.0727 80.1399 57.1876 78.3368C55.5033 74.5965 54.6229 71.5275 54.4698 68.9572C54.4506 68.6311 54.6995 68.3434 55.044 68.3242C55.3693 68.3242 55.6756 68.5544 55.6756 68.8997C55.8095 71.3357 56.6899 74.3088 58.3551 77.9916C58.3933 78.0875 58.4125 78.1834 58.4125 78.2793C58.4125 78.4711 57.0919 96.8084 57.3407 106.437C57.4172 109.679 58.623 111.003 61.4556 111.003C64.7476 111.003 70.2789 110.983 74.1642 110.964C76.2695 110.964 77.8772 110.964 78.4131 110.964C79.4083 110.964 84.308 109.161 87.1598 108.029C87.4851 107.914 87.8296 108.049 87.9445 108.375C88.0593 108.682 87.9253 109.046 87.6 109.161C86.8153 109.468 79.9634 112.173 78.4131 112.173C77.8963 112.173 76.2695 112.173 74.1833 112.173C70.298 112.173 64.7667 112.211 61.4748 112.211Z" fill="#19222B"/>
<path d="M51.6932 112.037C50.3726 112.037 48.9754 111.788 48.5543 111.711C48.2289 111.654 48.0184 111.328 48.0758 111.002C48.1332 110.675 48.4395 110.445 48.784 110.522C50.5448 110.867 52.765 110.982 53.2817 110.56C53.8176 110.138 54.5832 107.204 54.9851 104.729C55.0425 104.403 55.3488 104.173 55.6933 104.231C56.0187 104.288 56.2483 104.595 56.1909 104.921C55.9804 106.225 55.1957 110.58 54.0473 111.5C53.5497 111.903 52.631 112.037 51.6932 112.037Z" fill="#19222B"/>
<path d="M73.1137 34.6807L63.6206 37.7113L62.2617 42.9094L74.9511 38.8622L73.1137 34.6807Z" fill="#F2E5DC"/>
<path d="M65.8403 44.4452C65.8403 44.4452 65.6872 44.4452 65.6106 44.4068C65.4383 44.3301 65.3235 44.1958 65.2661 44.0232L64.0029 39.9376C63.9072 39.6115 64.0794 39.2662 64.4048 39.1703C64.7302 39.0744 65.0747 39.247 65.1704 39.5731L66.2231 42.9682L74.4338 38.7483C74.7209 38.5949 75.1037 38.71 75.2568 39.0169C75.4099 39.3238 75.2951 39.6882 74.9889 39.8417L66.1274 44.3876C66.1274 44.3876 65.9551 44.4644 65.8594 44.4644L65.8403 44.4452Z" fill="#C7A793"/>
<path d="M57.818 44.3475C57.6841 44.3475 57.5501 44.3091 57.4353 44.2132C57.2247 44.0597 57.1482 43.772 57.2439 43.5227L59.0621 38.4972C59.1769 38.1711 59.5214 38.0176 59.8468 38.1327C60.1722 38.2478 60.3253 38.5931 60.2105 38.9192L59.0047 42.2567L60.5358 41.2785C60.8229 41.1058 61.1866 41.1825 61.378 41.4511C61.5502 41.7388 61.4737 42.1032 61.2057 42.2951L58.1625 44.2515C58.0668 44.3091 57.952 44.3475 57.8372 44.3475H57.818Z" fill="#C7A793"/>
<path d="M84.0938 80.4467L93.7208 82.9403L95.0223 76.3803L96.4386 83.2472L99.0033 83.4774L95.7113 73.8867L84.3617 74.9417L84.0938 80.4467Z" fill="#F2E5DC"/>
<path d="M36.0729 64.8125L34.1016 67.6897L40.1496 78.9299L41.9678 80.7329L45.5086 71.219L36.0729 64.8125Z" fill="#F2E5DC"/>
<path d="M94.4893 76.9384C90.2978 76.7658 87.8863 76.4013 84.8814 75.4806C84.556 75.3847 84.3838 75.0395 84.4795 74.7134C84.5751 74.3873 84.9197 74.2147 85.245 74.3106C88.1351 75.2121 90.4701 75.5573 94.5085 75.7108C94.8338 75.7108 95.1018 75.9985 95.0826 76.3438C95.0826 76.6699 94.7955 76.9384 94.4702 76.9384H94.4893Z" fill="#C7A793"/>
<path d="M44.4029 71.8744C44.4029 71.8744 44.3264 71.8744 44.2881 71.8744C40.7282 71.2031 38.1061 68.7095 36.3836 67.0791L35.8477 66.5804C35.5988 66.3502 35.5797 65.9666 35.8094 65.7172C36.039 65.4679 36.4218 65.4487 36.6706 65.6789L37.2065 66.1776C38.8334 67.7313 41.2832 70.0522 44.4986 70.666C44.824 70.7235 45.0537 71.0496 44.9771 71.3757C44.9197 71.6634 44.6709 71.8744 44.3838 71.8744H44.4029Z" fill="#C7A793"/>
<path d="M56.1776 81.0028C56.1393 81.6742 55.7565 82.192 55.3163 82.1729C54.8761 82.1537 54.5507 81.5782 54.589 80.9069C54.6273 80.2356 55.0101 79.7177 55.4503 79.7368C55.8905 79.756 56.2158 80.3315 56.1776 81.0028Z" fill="#874F4D"/>
<path d="M55.6151 91.8983C55.5768 92.5697 55.194 93.0876 54.7538 93.0684C54.3136 93.0492 53.9882 92.4738 54.0265 91.8024C54.0648 91.1311 54.4476 90.6132 54.8878 90.6324C55.328 90.6515 55.6533 91.227 55.6151 91.8983Z" fill="#874F4D"/>
<path d="M56.9582 62.9346C56.9582 62.9346 56.8434 62.9346 56.8051 62.9155C56.4798 62.8196 56.2884 62.4935 56.3841 62.1674L61.6857 42.7368C61.7814 42.4107 62.1067 42.2189 62.4321 42.3148C62.7575 42.4107 62.9489 42.7368 62.8532 43.0628L57.5516 62.4935C57.475 62.762 57.2262 62.9346 56.9582 62.9346Z" fill="#C7A793"/>
<path d="M4.25192 49.3919C4.34762 49.5837 8.09893 51.732 8.3286 51.8471C8.3286 51.8471 4.63471 50.1783 4.46245 50.3893C4.2902 50.6003 5.26631 53.3624 5.40028 53.7077C5.66823 54.3406 6.74003 55.3381 8.27118 56.2779C9.61093 57.0836 12.9412 58.0043 12.9412 58.0043L21.439 60.4595L23.7166 56.2588C23.7166 56.2588 21.9749 51.2908 20.5012 50.0248C19.0275 48.7589 15.9843 46.764 15.4676 46.4188C14.9508 46.0735 12.7689 43.8677 12.0608 43.8868C11.3526 43.8868 11.7163 45.7091 12.2139 46.4955C12.7306 47.3011 15.1613 49.2384 15.4676 49.6604C15.7738 50.1016 16.5585 50.9647 16.3863 51.2333C16.214 51.521 13.1134 51.5018 13.1134 51.5018L8.30946 50.2934C8.30946 50.2934 4.8261 47.9341 4.17536 48.2602C3.98397 48.3561 4.11795 49.1617 4.21364 49.3535L4.25192 49.3919Z" fill="#FFC7B8"/>
<path d="M20.6937 55.1463C19.0477 54.8394 17.7079 54.0338 16.6553 52.7295C16.5404 52.5952 16.5787 52.4034 16.6936 52.3075C16.8275 52.2116 17.0189 52.2308 17.1146 52.3459C18.0716 53.5351 19.2965 54.264 20.732 54.5517C20.9042 54.5901 20.9999 54.7435 20.9808 54.897C20.9616 55.0504 20.8276 55.1463 20.6745 55.1463H20.6937Z" fill="#E37A64"/>
<path d="M11.0179 52.8631C11.0179 52.8631 10.9605 52.8631 10.9222 52.8631L9.16136 52.2876C9.00825 52.2301 8.91255 52.0575 8.96997 51.904C9.02739 51.7506 9.19964 51.6546 9.35275 51.7122L11.1136 52.2876C11.2667 52.3452 11.3624 52.5178 11.305 52.6713C11.2667 52.8055 11.1519 52.8823 11.0179 52.8823V52.8631Z" fill="#E37A64"/>
<path d="M12.3801 56.5278C10.7915 56.3168 8.28428 55.4537 6.48518 54.1877C6.35121 54.0918 6.31293 53.9 6.40863 53.7657C6.50432 53.6315 6.69572 53.5931 6.82969 53.689C8.53309 54.8974 10.9446 55.7414 12.4184 55.9332C12.5906 55.9524 12.7055 56.1059 12.6863 56.2785C12.6863 56.4319 12.5332 56.547 12.3801 56.547V56.5278Z" fill="#E37A64"/>
<path d="M11.7633 54.5124C10.079 54.3014 7.2464 53.304 5.50472 52.0764C5.37074 51.9805 5.33246 51.7887 5.42816 51.6544C5.52386 51.5201 5.71525 51.4818 5.84922 51.5777C7.51435 52.7477 10.2321 53.7068 11.8016 53.8986C11.9738 53.9178 12.0886 54.0713 12.0695 54.2439C12.0695 54.3973 11.9164 54.5124 11.7633 54.5124Z" fill="#E37A64"/>
<path d="M14.6579 57.4652C14.543 57.4652 14.4473 57.4077 14.3899 57.3118C14.1411 56.8706 13.8731 56.4294 13.5861 55.9691C12.8779 54.8182 12.1315 53.629 11.8444 52.5165C11.8061 52.363 11.9018 52.1904 12.0549 52.152C12.208 52.1137 12.3803 52.2096 12.4186 52.363C12.6865 53.3796 13.3947 54.5305 14.0837 55.643C14.3708 56.1034 14.6579 56.5637 14.9067 57.0049C14.9832 57.1583 14.945 57.331 14.7918 57.4269C14.7536 57.446 14.6961 57.4652 14.6387 57.4652H14.6579Z" fill="#E37A64"/>
<path d="M71.9038 84.7628C72.6885 84.8587 73.6647 89.5389 73.6647 89.5389C73.6647 89.5389 74.2197 92.7997 72.6694 93.2409C71.1191 93.682 65.8941 93.8355 65.5304 93.682C65.0902 93.5094 64.8223 93.2984 64.7457 92.8381C64.6692 92.3585 64.7074 91.9174 64.5161 91.5529C64.3247 91.2077 63.9419 90.8816 63.9419 90.4788C63.9419 90.076 63.9419 89.6348 63.827 89.3662C63.6931 89.1169 63.3103 88.8484 63.2337 88.5031C63.138 88.0811 63.3103 87.6399 63.2337 87.3522C63.1572 87.0645 62.6595 86.5274 62.583 86.0863C62.5447 85.8177 63.6739 84.0914 64.229 84.0339C64.784 83.9763 71.1 84.6285 71.9038 84.7436V84.7628Z" fill="#FFC7B8"/>
<path d="M64.441 84.7258C64.441 84.7258 66.1827 82.6734 67.0248 82.7501C67.4267 82.7885 70.5847 83.4598 71.0249 83.7668C71.4651 84.0737 73.915 85.9342 73.915 85.9342L71.2355 87.2769L64.4219 84.7066L64.441 84.7258Z" fill="#FFC7B8"/>
<path d="M68.5658 85.1638L65.3887 84.9145C65.2164 84.9145 65.1016 84.761 65.1016 84.5884C65.1016 84.4157 65.2547 84.2815 65.4269 84.3007L68.5849 84.55C68.7572 84.55 68.872 84.7035 68.872 84.8761C68.872 85.0295 68.7189 85.1638 68.5658 85.1638Z" fill="#E37A64"/>
<path d="M78.5017 22.3766C79.1029 20.4783 78.6837 18.6511 77.5654 18.2953C76.447 17.9396 75.0531 19.19 74.4519 21.0883C73.8507 22.9866 74.2699 24.8138 75.3882 25.1695C76.5065 25.5253 77.9005 24.2748 78.5017 22.3766Z" fill="#FFC7B8"/>
<path d="M58.7411 25.1695C59.8595 24.8138 60.2787 22.9865 59.6775 21.0883C59.0763 19.19 57.6823 17.9396 56.564 18.2953C55.4456 18.6511 55.0264 20.4783 55.6276 22.3765C56.2289 24.2748 57.6228 25.5252 58.7411 25.1695Z" fill="#FFC7B8"/>
</g>
</svg>
