<svg width="83" height="126" viewBox="0 0 83 126" fill="none" xmlns="http://www.w3.org/2000/svg">
<mask id="mask0_4023_22220" style="mask-type:alpha" maskUnits="userSpaceOnUse" x="0" y="0" width="83" height="126">
<rect y="0.880859" width="83" height="125" fill="#D9D9D9"/>
</mask>
<g mask="url(#mask0_4023_22220)">
<path d="M33.1481 32.416C33.9132 30.6069 33.588 23.41 33.588 23.41L39.9575 23.292L46.327 23.41C46.327 23.41 46.0018 30.6069 46.7669 32.416C47.532 34.225 49.5595 36.1128 49.5595 36.1128C49.5595 36.1128 47.2069 47.911 39.9575 47.911C32.7082 47.911 30.3555 36.1128 30.3555 36.1128C30.3555 36.1128 32.383 34.225 33.1481 32.416Z" fill="#FFC7B8"/>
<g style="mix-blend-mode:multiply">
<path d="M46.2632 31.5306C44.8286 33.0054 43.0498 34.6768 42.4951 34.9128C42.036 35.1094 41.2135 35.2274 39.932 35.2471C38.6504 35.2471 37.8279 35.1094 37.3689 34.9128C36.8333 34.6571 35.0545 32.9857 33.6008 31.5306C33.639 29.2693 33.5625 27.1259 33.5625 27.1259L39.932 26.9883L46.3015 27.1259C46.3015 27.1259 46.2058 29.2693 46.2632 31.5306Z" fill="#F3DAD3"/>
</g>
<path d="M49.6334 7.54011C48.0267 4.84617 43.9526 3.03711 39.9358 3.03711C35.919 3.03711 31.8448 4.84617 30.2381 7.54011C28.4975 10.4503 30.2381 16.8607 30.6972 19.9283C31.0032 22.0126 31.1753 27.3218 31.73 28.2657C32.3039 29.2096 36.4737 33.4176 37.3535 33.8109C37.8126 34.0272 38.6351 34.1452 39.9166 34.1452C41.2173 34.1452 42.0207 34.0272 42.4797 33.8109C43.3596 33.4176 47.5485 29.2096 48.1032 28.2657C48.6771 27.3218 48.8301 22.0126 49.1361 19.9283C49.5952 16.8607 51.3358 10.47 49.5952 7.54011H49.6334Z" fill="#FFC7B8"/>
<path d="M32.3257 17.863C32.3257 17.863 29.2652 14.5792 28.3471 16.0933C27.429 17.6074 29.4183 23.4082 30.1069 23.8801C31.0824 24.5683 32.4213 23.2902 32.4213 23.2902L32.3257 17.863Z" fill="#FFC7B8"/>
<path d="M47.5488 17.863C47.5488 17.863 50.6092 14.5792 51.5273 16.0933C52.4263 17.5877 50.4562 23.4082 49.7676 23.8801C48.7921 24.5683 47.4531 23.2902 47.4531 23.2902L47.5488 17.863Z" fill="#FFC7B8"/>
<path d="M39.9354 1.91602C34.6753 1.91602 29.1474 4.86558 29.0518 8.73934C28.9944 10.922 29.4534 14.1862 29.8551 16.9391L30.142 19.0628L30.8689 19.4757V17.8633C31.3662 17.4111 31.94 16.1329 32.1122 15.4447C32.2652 14.7958 31.8444 11.5906 33.3363 10.7647C35.0004 9.86017 37.9843 11.276 39.9354 11.276C41.8864 11.276 44.8703 9.87983 46.5344 10.7647C48.0263 11.5709 47.6055 14.7761 47.7585 15.4447C47.9115 16.1329 48.5045 17.4111 48.9827 17.8633V19.4757L49.7287 19.0628L50.0156 16.9391C50.4364 14.1862 50.8763 10.922 50.8189 8.73934C50.7233 4.86558 45.1954 1.91602 39.9354 1.91602Z" fill="#212938"/>
<path d="M28.2109 37.9424L40.07 87.436L51.8144 38.139L39.8788 43.5859L28.2109 37.9424Z" fill="#F2E5DC"/>
<path d="M38.3468 45.4727C37.8303 52.7089 34.7891 96.3821 34.7891 97.0703C34.7891 97.8176 39.6475 106.352 39.8961 106.352C40.1448 106.352 45.0032 97.9159 45.0032 97.0703C45.0032 96.3035 41.9428 52.7089 41.4455 45.4727H38.3468Z" fill="#D1BCAC"/>
<path d="M37.4833 42.5215C36.527 44.3502 35.9531 45.7857 35.9531 45.8643C35.9531 46.3559 39.7021 51.8618 39.8934 51.8618C40.0847 51.8618 43.8337 46.4149 43.8337 45.8643C43.8337 45.766 43.2599 44.4092 42.3035 42.5215H37.4833Z" fill="#D1BCAC"/>
<path d="M39.8987 42.4624C35.9584 40.142 34.1222 38.097 32.2859 33.5547C31.0235 34.9901 30.0289 36.0716 28.8047 37.3498C29.6463 42.2264 29.9906 45.8249 33.9309 48.5385C35.0403 46.2771 38.1963 44.2518 39.8987 42.6V42.4624Z" fill="#F2E5DC"/>
<path d="M39.8984 42.4624C43.8387 40.142 45.675 38.097 47.5112 33.5547C48.4676 34.7738 49.7109 36.1503 50.9924 37.3498C50.1508 42.2264 49.8256 46.0805 45.8854 48.7941C44.776 46.5328 41.6008 44.2518 39.8984 42.6V42.4624Z" fill="#F2E5DC"/>
<path d="M16.1423 125.463C16.1423 125.463 15.8362 140.289 16.1423 156.099C16.3718 167.897 17.1943 180.442 17.1943 186.676C17.1943 201.266 14.5547 248.086 14.5547 248.086L21.1346 249.089L29.7229 253.631C29.7229 253.631 33.4527 245.352 33.0319 242.953C32.6111 240.555 31.0809 235.442 31.2148 233.495C31.3487 231.549 35.5185 196.37 35.5185 196.37L40.6447 164.141V121.451L16.1231 125.443L16.1423 125.463Z" fill="#2C394A"/>
<path d="M64.3258 125.463C64.3258 125.463 64.6319 140.29 64.3258 156.1C64.0963 167.898 63.2738 180.443 63.2738 186.677C63.2738 201.267 65.3587 247.752 65.3587 247.752L50.7261 253.632C50.7261 253.632 47.9335 245.275 48.3352 242.876C48.7369 240.496 48.6412 236.111 48.5073 234.184C48.3734 232.238 44.9113 196.391 44.9113 196.391L39.7852 164.162V121.472L64.3067 125.463H64.3258Z" fill="#2C394A"/>
<path d="M11.4378 129.398C10.9023 131.856 36.1698 138.345 37.107 136.182C38.0443 134.019 40.856 118.367 40.856 118.367V85.6073L28.8057 37.3721L22.9718 42.111L8.49219 50.2518L17.0613 100.65C17.0613 100.65 11.9734 126.94 11.4378 129.418V129.398Z" fill="#2C394A"/>
<path d="M68.6838 129.398C69.2194 131.856 43.9519 138.345 43.0146 136.182C42.0774 134.019 39.2656 118.367 39.2656 118.367V85.6073L50.9908 37.3721L57.2455 42.17L71.6295 50.2715L63.0603 100.67C63.0603 100.67 68.1483 126.96 68.6838 129.438V129.398Z" fill="#2C394A"/>
<path d="M33.9276 137.301C28.3423 137.301 17.9943 133.565 16.5789 133.054C16.2728 132.936 16.1007 132.582 16.2155 132.247C16.3302 131.933 16.6745 131.756 16.9997 131.874C23.2544 134.174 33.985 137.222 36.1273 135.63C39.1112 133.408 39.3407 126.348 39.3407 126.27V83.9925C39.3407 83.6582 39.6085 83.3633 39.9528 83.3633C40.2971 83.3633 40.5649 83.6386 40.5649 83.9925V126.289C40.5649 126.624 40.3162 134.056 36.8541 136.652C36.242 137.104 35.2283 137.301 33.9658 137.301H33.9276Z" fill="#19222B"/>
<path d="M46.1537 137.302C44.8913 137.302 43.8775 137.105 43.2654 136.653C39.8033 134.058 39.5547 126.625 39.5547 126.31C39.5547 125.976 39.8033 125.681 40.1476 125.661C40.4919 125.661 40.7597 125.917 40.7789 126.271C40.7789 126.349 41.0084 133.409 43.9923 135.631C46.1154 137.223 56.846 134.176 63.1199 131.875C63.445 131.757 63.7893 131.934 63.9041 132.248C64.0189 132.583 63.8467 132.937 63.5407 133.055C62.1443 133.566 51.7772 137.302 46.192 137.302H46.1537Z" fill="#19222B"/>
<path d="M8.48873 50.2314C8.48873 50.2314 6.34644 50.664 5.98302 51.8635C5.61959 53.063 4.83536 66.0608 4.83536 66.0608C4.83536 66.0608 -1.3811 102.635 0.340385 103.815C2.06187 104.995 17.0961 98.6436 17.0961 98.6436L13.2324 65.3529L8.4696 50.2314H8.48873Z" fill="#2C394A"/>
<path d="M46.3645 106.134C46.2306 106.134 39.5742 108.474 39.5742 108.474L44.3752 116.241L51.1081 112.996L46.3645 106.134Z" fill="#F6E0DA"/>
<path d="M37.4119 108.079C36.4555 107.961 33.9306 113.526 33.9306 113.526C33.9306 113.526 32.5726 116.81 34.2941 117.734C36.0155 118.658 41.8686 120.526 42.3276 120.467C42.9015 120.408 43.5709 120.074 43.7622 119.583C43.9535 119.091 44.4699 119.189 44.8907 119.052C45.2733 118.914 45.6941 118.639 45.7897 118.226C45.8854 117.813 46.5548 117.852 46.8609 117.813C47.1287 117.773 47.4538 117.616 47.6642 117.302C47.932 116.928 48.0277 116.299 48.1807 116.023C48.3337 115.748 49.0606 115.453 49.2327 115.021C49.3475 114.745 49.2901 113.624 49.1944 113.428C48.9649 112.956 38.3682 108.178 37.3927 108.06L37.4119 108.079Z" fill="#FFC7B8"/>
<path d="M36.36 110.932C37.0104 110.323 41.6966 113.095 41.6966 113.095C41.6966 113.095 44.3745 114.806 43.552 116.399C42.7295 118.011 38.9997 122.554 38.6362 122.75C38.1963 123.006 37.852 123.104 37.4694 122.849C37.0869 122.593 36.7809 122.278 36.4174 122.18C36.0349 122.101 35.5184 122.219 35.2506 121.964C34.9637 121.708 34.6768 121.374 34.3899 121.315C34.1221 121.256 33.6631 121.413 33.357 121.236C32.9936 121.02 32.8214 120.587 32.5537 120.469C32.2859 120.351 31.559 120.41 31.1956 120.174C30.9661 120.037 30.4496 116.93 30.4305 116.733C30.354 116.261 35.7097 111.483 36.36 110.873V110.932Z" fill="#FFC7B8"/>
<path d="M40.1992 120.353C40.1992 120.353 40.1227 120.353 40.0844 120.333L31.8787 117.05C31.7257 116.991 31.6492 116.814 31.7066 116.637C31.7639 116.46 31.9552 116.401 32.1082 116.46L40.314 119.743C40.467 119.802 40.5435 119.979 40.4861 120.156C40.4479 120.274 40.3331 120.353 40.1992 120.353Z" fill="#DBB5AD"/>
<path d="M34.981 107.058C35.1149 107.058 38.577 108.297 38.577 108.297L33.3743 116.614L30.5625 115.454L34.981 107.038V107.058Z" fill="#FFC7B8"/>
<path d="M27.8672 115.77L31.0232 116.734L35.8434 106.627L31.9796 104.759L27.8672 115.77Z" fill="#F2E5DC"/>
<path d="M53.517 114.512L50.361 115.456L45.2539 104.877L49.4046 103.48L53.517 114.512Z" fill="#F2E5DC"/>
<path d="M35.8828 108.552C35.8828 108.552 37.2217 107.647 38.3694 107.509C39.5171 107.372 42.1184 106.33 42.4627 106.271C42.807 106.212 44.9493 104.953 44.9493 105.15C44.9493 105.346 45.4083 106.33 45.0067 106.684C44.605 107.018 39.2875 111.187 39.2875 111.187L35.9019 108.532L35.8828 108.552Z" fill="#FFC7B8"/>
<path d="M8.98349 91.8574C9.32778 91.8574 34.5188 104.835 34.5188 104.835L27.5372 118.954C27.5372 118.954 9.57644 110.105 7.6063 109.279C6.6308 108.867 0.242188 105.248 0.242188 102.889C0.242188 100.529 8.98349 91.8771 8.98349 91.8771V91.8574Z" fill="#2C394A"/>
<path d="M38.4042 87.1985C38.1938 87.1985 37.9834 87.0805 37.8686 86.8839C36.9122 85.1338 35.9559 83.4624 35.0186 81.8303C31.1166 75.0069 27.425 68.5572 24.9575 58.863C24.9001 58.6664 24.9575 58.4697 25.0723 58.3124L29.3186 52.7083H22.8152C22.6431 52.6886 22.49 52.6099 22.3753 52.492C22.2605 52.374 22.2031 52.197 22.2031 52.0397L22.5283 42.6011C22.5283 42.4045 22.6239 42.2275 22.777 42.1292L27.5015 38.5307C27.7692 38.3341 28.1518 38.3734 28.3431 38.6683C28.5344 38.9436 28.4961 39.3369 28.2092 39.5335L23.7142 42.955L23.4082 51.4498H30.5236C30.7531 51.4694 30.9636 51.6071 31.0592 51.8234C31.1548 52.0397 31.1357 52.2953 30.9827 52.4723L26.1625 58.8433C28.5917 68.223 32.2068 74.535 36.0132 81.201C36.9505 82.8528 37.9069 84.5242 38.8824 86.2743C39.0545 86.5692 38.9398 86.9625 38.6528 87.1198C38.5572 87.1788 38.4616 87.1985 38.3468 87.1985H38.4042Z" fill="#19222B"/>
<path d="M41.0441 90.6594C41.0441 90.6594 40.8719 90.6594 40.7763 90.6004C40.4702 90.4431 40.3363 90.0892 40.4894 89.7746C41.5222 87.5526 42.6317 85.3109 43.7602 83.0299C47.4518 75.538 51.2773 67.8101 53.5917 58.8631L48.7525 52.4921C48.6186 52.2955 48.5803 52.0398 48.676 51.8432C48.7716 51.6269 48.982 51.4892 49.2115 51.4892H56.327L56.0209 42.9552L51.526 39.5337C51.2582 39.337 51.2008 38.9438 51.3921 38.6685C51.6025 38.3932 51.9659 38.3342 52.2337 38.5308L56.9582 42.1293C57.1112 42.2473 57.1877 42.4242 57.2069 42.6012L57.532 52.0398C57.532 52.2168 57.4746 52.3741 57.3599 52.4921C57.2451 52.6101 57.0921 52.6887 56.9199 52.6887H50.4166L54.6629 58.3126C54.7777 58.4699 54.8159 58.6665 54.7777 58.8631C52.4441 68.0658 48.5421 75.9509 44.7931 83.5805C43.6645 85.8615 42.5743 88.1031 41.5414 90.3055C41.4457 90.5218 41.2162 90.6594 40.9867 90.6594H41.0441Z" fill="#19222B"/>
<path d="M14.6638 92.3889C14.3387 92.3889 14.0517 92.1136 14.0517 91.7597L14.0135 75.2225L7.93092 53.2581C7.83528 52.9238 8.02656 52.5895 8.35173 52.4912C8.6769 52.4125 9.00206 52.5895 9.0977 52.9238L15.1994 74.9865C15.1994 74.9865 15.2185 75.1045 15.2185 75.1635L15.2568 91.799C15.2568 92.153 14.989 92.4283 14.6447 92.4283L14.6638 92.3889Z" fill="#19222B"/>
<path d="M32.1311 104.502C32.0354 104.502 31.9207 104.483 31.825 104.424L10.1535 91.5046C9.86657 91.3276 9.77093 90.954 9.92395 90.659C10.0961 90.3641 10.4595 90.2657 10.7464 90.4231L32.418 103.342C32.7049 103.519 32.8005 103.893 32.6475 104.188C32.5327 104.384 32.3223 104.502 32.1311 104.502Z" fill="#19222B"/>
<path d="M26.6817 117.224C26.6817 117.224 26.5478 117.224 26.4713 117.184L15.7216 113.311C15.3965 113.193 15.2434 112.839 15.3582 112.504C15.473 112.17 15.8173 112.013 16.1424 112.131L26.8921 116.005C27.2173 116.122 27.3703 116.476 27.2556 116.811C27.1599 117.066 26.9304 117.224 26.6817 117.224Z" fill="#19222B"/>
<path d="M71.3418 50.2314C71.3418 50.2314 73.4841 50.664 73.8475 51.8635C74.1918 53.0434 74.9951 66.0608 74.9951 66.0608C74.9951 66.0608 81.2116 102.635 79.4901 103.815C77.7686 104.995 62.7344 98.6436 62.7344 98.6436L66.5981 65.3529L71.3609 50.2314H71.3418Z" fill="#2C394A"/>
<path d="M70.8483 91.8574C70.504 91.8574 46.6328 103.007 46.6328 103.007L52.964 116.26C52.964 116.26 71.4221 109.968 72.2255 109.26C73.0289 108.552 79.5896 105.229 79.5896 102.869C79.5896 100.509 70.8483 91.8574 70.8483 91.8574Z" fill="#2C394A"/>
<path d="M65.1629 92.3902C64.8186 92.3902 64.5508 92.1149 64.5508 91.7609L64.589 75.1254C64.589 75.1254 64.589 75.0074 64.6082 74.9484L70.7099 52.8857C70.8055 52.5514 71.1307 52.3744 71.4558 52.4531C71.781 52.5514 71.9723 52.8857 71.8766 53.22L65.7941 75.1844L65.7558 91.7216C65.7558 92.0559 65.488 92.3508 65.1437 92.3508L65.1629 92.3902Z" fill="#19222B"/>
<path d="M48.8292 102.043C48.5997 102.043 48.3893 101.906 48.2745 101.69C48.1215 101.375 48.2554 101.001 48.5614 100.864L71.1893 89.498C71.4954 89.3407 71.8588 89.4783 71.9927 89.7929C72.1457 90.1076 72.0118 90.4812 71.7058 90.6188L49.0779 101.984C49.0779 101.984 48.9057 102.043 48.8101 102.043H48.8292Z" fill="#19222B"/>
<path d="M26.6404 69.0664H17.1914V75.6341H26.6404V69.0664Z" fill="#F2E5DC"/>
<path d="M22.278 66.5508H21.5703V69.7166H22.278V66.5508Z" fill="#F2E5DC"/>
<path d="M23.6628 70.4248H17.8672V73.453H23.6628V70.4248Z" fill="#D1BCAC"/>
<path d="M32.8793 49.422C32.6881 49.422 32.5159 49.3433 32.4011 49.1664C32.1907 48.8911 32.2481 48.4978 32.5159 48.3012L39.7653 42.7166C40.033 42.52 40.4156 42.5593 40.6069 42.8346C40.8173 43.1099 40.7599 43.5032 40.4921 43.6998L33.2428 49.2843C33.128 49.363 33.0132 49.4023 32.8793 49.4023V49.422Z" fill="#C7A793"/>
<path d="M47.0491 49.4626C46.9152 49.4626 46.7813 49.4232 46.6665 49.3249L39.7424 43.7011C39.4746 43.4848 39.4363 43.0915 39.6467 42.8162C39.8571 42.5409 40.2397 42.5016 40.5075 42.7179L47.4316 48.3417C47.6994 48.558 47.7377 48.9513 47.5273 49.2266C47.4125 49.3839 47.2212 49.4626 47.0491 49.4626Z" fill="#C7A793"/>
</g>
</svg>
